<?xml version="1.0" encoding="UTF-8"?>
<svg id="Layer_2" data-name="Layer 2" xmlns="http://www.w3.org/2000/svg" viewBox="0 0 447.7 375.61">
  <defs>
    <style>
      .cls-1, .cls-2, .cls-3, .cls-4, .cls-5, .cls-6, .cls-7, .cls-8, .cls-9, .cls-10, .cls-11, .cls-12, .cls-13, .cls-14 {
        stroke-width: 0px;
      }

      .cls-1, .cls-4, .cls-15 {
        opacity: .2;
      }

      .cls-1, .cls-12 {
        fill: #fff;
      }

      .cls-2 {
        opacity: .49;
      }

      .cls-2, .cls-7, .cls-8, .cls-13 {
        fill: #000;
      }

      .cls-3 {
        fill: #263238;
      }

      .cls-4, .cls-6 {
        fill: #ffc727;
      }

      .cls-5 {
        fill: #dbdbdb;
      }

      .cls-8 {
        opacity: .1;
      }

      .cls-9 {
        fill: #455a64;
      }

      .cls-10 {
        fill: #263238;
      }

      .cls-16 {
        opacity: .4;
      }

      .cls-11 {
        fill: #ebebeb;
      }

      .cls-13 {
        opacity: .3;
      }

      .cls-14 {
        fill: #37474f;
      }
    </style>
  </defs>
  <g id="Background_Complete" data-name="Background Complete">
    <g>
      <g>
        <polygon class="cls-11" points="188.92 331.11 10.19 331.11 33.36 274.15 45.6 267.44 64.87 222.89 80.45 213.74 95.27 186.94 109.89 186.94 142.39 241.81 158.93 250.35 188.92 331.11"/>
        <polygon class="cls-5" points="10.19 331.11 87.28 331.11 87.28 286.66 107.07 255.54 97.64 222.89 109.89 186.94 95.27 186.94 80.45 213.74 64.87 222.89 45.6 267.44 33.36 274.15 10.19 331.11"/>
        <polygon class="cls-5" points="109.89 331.11 117.36 307.71 129.44 295.81 134.84 281.78 138.6 284.83 138.6 298.25 129.44 308.93 129.44 331.2 109.89 331.11"/>
        <polygon class="cls-5" points="124.25 259.03 126.25 249.64 131.64 244.25 134.16 247.45 130.8 251.64 132.31 260.57 124.25 259.03"/>
      </g>
      <g>
        <polygon class="cls-11" points="176.06 331.07 437.51 331.07 388.18 228.04 364.45 217.87 339.26 168.65 322.65 150.79 308.01 118.2 290.87 120.98 261.56 189.26 245.19 201.46 218.61 271.79 192.43 297.23 176.06 331.07"/>
        <polygon class="cls-5" points="308.01 118.2 310.02 169.54 290.72 196.5 299.77 217.14 281.85 262.64 297.47 300.28 288.22 331.07 176.06 331.07 192.43 297.23 218.61 271.79 245.19 201.46 261.56 189.26 290.87 120.98 308.01 118.2"/>
        <polygon class="cls-5" points="303.19 249.41 316.65 226.01 315.59 216.09 320.61 208.97 326.68 229.19 308.47 249.41 303.19 249.41"/>
      </g>
    </g>
    <g>
      <polygon class="cls-5" points="292.63 77.4 293.58 79.33 295.72 79.64 294.17 81.15 294.54 83.28 292.63 82.27 290.72 83.28 291.08 81.15 289.54 79.64 291.67 79.33 292.63 77.4"/>
      <polygon class="cls-5" points="113.12 174.18 114.08 176.12 116.21 176.43 114.67 177.94 115.03 180.06 113.12 179.06 111.21 180.06 111.58 177.94 110.03 176.43 112.17 176.12 113.12 174.18"/>
      <polygon class="cls-5" points="362.52 6.46 363.48 8.39 365.61 8.7 364.07 10.21 364.43 12.33 362.52 11.33 360.61 12.33 360.98 10.21 359.43 8.7 361.57 8.39 362.52 6.46"/>
      <polygon class="cls-5" points="148.03 9.39 148.99 11.33 151.12 11.64 149.58 13.15 149.94 15.27 148.03 14.27 146.12 15.27 146.49 13.15 144.94 11.64 147.08 11.33 148.03 9.39"/>
      <polygon class="cls-5" points="420.01 168.31 420.96 170.24 423.1 170.55 421.55 172.06 421.92 174.18 420.01 173.18 418.1 174.18 418.46 172.06 416.91 170.55 419.05 170.24 420.01 168.31"/>
      <polygon class="cls-5" points="209.56 74.07 210.51 76.01 212.65 76.32 211.1 77.82 211.47 79.95 209.56 78.95 207.65 79.95 208.01 77.82 206.46 76.32 208.6 76.01 209.56 74.07"/>
      <polygon class="cls-5" points="19.29 34.21 20.24 36.15 22.38 36.46 20.83 37.97 21.2 40.09 19.29 39.09 17.37 40.09 17.74 37.97 16.19 36.46 18.33 36.15 19.29 34.21"/>
      <polygon class="cls-5" points="60.5 149.77 61.45 151.7 63.59 152.01 62.04 153.52 62.41 155.65 60.5 154.64 58.59 155.65 58.95 153.52 57.41 152.01 59.54 151.7 60.5 149.77"/>
      <polygon class="cls-5" points="19.29 182.71 19.88 183.91 21.2 184.1 20.24 185.03 20.47 186.34 19.29 185.72 18.1 186.34 18.33 185.03 17.37 184.1 18.69 183.91 19.29 182.71"/>
      <polygon class="cls-5" points="153.58 61.3 154.17 62.5 155.49 62.69 154.53 63.62 154.76 64.93 153.58 64.31 152.39 64.93 152.62 63.62 151.67 62.69 152.99 62.5 153.58 61.3"/>
      <polygon class="cls-5" points="252.79 167.61 253.38 168.81 254.7 169 253.75 169.93 253.97 171.24 252.79 170.62 251.61 171.24 251.84 169.93 250.88 169 252.2 168.81 252.79 167.61"/>
      <polygon class="cls-5" points="29.66 44.58 30.25 45.78 31.57 45.97 30.61 46.9 30.84 48.22 29.66 47.6 28.48 48.22 28.7 46.9 27.75 45.97 29.07 45.78 29.66 44.58"/>
      <polygon class="cls-5" points="365.61 150.89 366.21 152.09 367.52 152.28 366.57 153.21 366.8 154.52 365.61 153.9 364.43 154.52 364.66 153.21 363.7 152.28 365.02 152.09 365.61 150.89"/>
      <polygon class="cls-5" points="68.47 207.15 69.06 208.35 70.38 208.54 69.43 209.47 69.65 210.78 68.47 210.16 67.29 210.78 67.52 209.47 66.56 208.54 67.88 208.35 68.47 207.15"/>
      <polygon class="cls-5" points="45.55 143.32 46.14 144.51 47.46 144.71 46.51 145.64 46.73 146.95 45.55 146.33 44.37 146.95 44.6 145.64 43.64 144.71 44.96 144.51 45.55 143.32"/>
      <polygon class="cls-5" points="239.33 52.04 239.92 53.23 241.24 53.42 240.28 54.35 240.51 55.67 239.33 55.05 238.15 55.67 238.37 54.35 237.42 53.42 238.74 53.23 239.33 52.04"/>
      <polygon class="cls-5" points="370.29 207.15 370.88 208.35 372.2 208.54 371.25 209.47 371.47 210.78 370.29 210.16 369.11 210.78 369.34 209.47 368.38 208.54 369.7 208.35 370.29 207.15"/>
      <polygon class="cls-5" points="429.6 93 430.19 94.2 431.51 94.39 430.55 95.32 430.78 96.64 429.6 96.01 428.42 96.64 428.64 95.32 427.69 94.39 429.01 94.2 429.6 93"/>
      <polygon class="cls-5" points="377.47 91.18 378.06 92.38 379.38 92.57 378.42 93.5 378.65 94.82 377.47 94.2 376.29 94.82 376.51 93.5 375.56 92.57 376.88 92.38 377.47 91.18"/>
      <path class="cls-5" d="M339.2,38.77c-4.53,7.92-13.07,13.26-22.85,13.26-14.56,0-26.34-11.8-26.34-26.35,0-12.54,8.76-23.03,20.5-25.68-8.47,3.9-14.34,12.45-14.34,22.38,0,13.61,11.04,24.64,24.65,24.64,7.31,0,13.88-3.18,18.38-8.24Z"/>
    </g>
  </g>
  <g id="Floor">
    <path class="cls-3" d="M10,331.11c137.01-.61,290.7-.62,427.7,0-137.01.62-290.7.61-427.7,0h0Z"/>
    <g>
      <path class="cls-9" d="M443.22,340.07H4.48c-2.47,0-4.48-2.01-4.48-4.48h0c0-2.47,2.01-4.48,4.48-4.48h438.74c2.47,0,4.48,2.01,4.48,4.48h0c0,2.47-2.01,4.48-4.48,4.48Z"/>
      <path class="cls-9" d="M77.43,348.93h276.57c2.47,0,4.48,2.01,4.48,4.48h0c0,2.47-2.01,4.48-4.48,4.48H77.43c-2.47,0-4.48-2.01-4.48-4.48h0c0-2.47,2.01-4.48,4.48-4.48Z"/>
      <path class="cls-9" d="M329.16,375.61H127.67c-2.47,0-4.48-2.01-4.48-4.48h0c0-2.47,2.01-4.48,4.48-4.48h201.49c2.47,0,4.48,2.01,4.48,4.48h0c0,2.47-2.01,4.48-4.48,4.48Z"/>
      <path class="cls-9" d="M37.71,348.93h21.05c2.47,0,4.48,2.01,4.48,4.48h0c0,2.47-2.01,4.48-4.48,4.48h-21.05c-2.47,0-4.48-2.01-4.48-4.48h0c0-2.47,2.01-4.48,4.48-4.48Z"/>
      <path class="cls-9" d="M363.98,375.61h-10.52c-2.47,0-4.48-2.01-4.48-4.48h0c0-2.47,2.01-4.48,4.48-4.48h10.52c2.47,0,4.48,2.01,4.48,4.48h0c0,2.47-2.01,4.48-4.48,4.48Z"/>
      <path class="cls-9" d="M207.33,349.02h-115.89c1.24,0,2.36-.5,3.17-1.31.81-.81,1.31-1.93,1.31-3.17,0-2.47-2-4.48-4.48-4.48h115.89c-1.24,0-2.36.5-3.17,1.31-.81.82-1.31,1.94-1.31,3.17,0,2.48,2,4.48,4.48,4.48Z"/>
      <path class="cls-9" d="M327.68,349.02h-76.02c1.24,0,2.36-.5,3.17-1.31s1.31-1.93,1.31-3.17c0-2.47-2-4.48-4.48-4.48h76.02c-1.24,0-2.36.5-3.17,1.31-.81.82-1.31,1.94-1.31,3.17,0,2.48,2,4.48,4.48,4.48Z"/>
      <path class="cls-9" d="M270.19,366.75h-116.62c1.24,0,2.36-.5,3.17-1.31s1.31-1.93,1.31-3.17c0-2.47-2-4.48-4.48-4.48h116.62c-1.24,0-2.36.5-3.17,1.31-.81.82-1.31,1.94-1.31,3.17,0,2.48,2,4.48,4.48,4.48Z"/>
    </g>
  </g>
  <g id="Mountains">
    <g>
      <g>
        <polygon class="cls-9" points="39.98 331.03 318.99 331.03 268.06 205.47 243.56 193.07 217.56 133.09 200.4 111.31 185.29 71.6 167.59 74.98 137.33 158.2 120.44 173.08 83.91 258.79 56.88 289.78 39.98 331.03"/>
        <polygon class="cls-14" points="185.29 71.6 187.36 134.17 167.44 167.03 176.78 192.18 158.28 247.63 174.41 293.5 164.86 331.03 39.98 331.03 56.88 289.78 83.91 258.79 120.44 173.08 137.33 158.2 167.59 74.98 185.29 71.6"/>
        <polygon class="cls-14" points="180.31 231.51 194.21 202.99 193.12 190.9 198.3 182.22 204.57 206.86 185.76 231.51 180.31 231.51"/>
      </g>
      <g>
        <polygon class="cls-14" points="407.72 331.05 201.13 331.05 228.42 264.02 247.7 248.54 267.59 190.83 283.68 178.97 298.97 144.25 314.07 144.25 347.62 215.34 364.7 226.41 407.72 331.05"/>
        <polygon class="cls-10" points="201.13 331.05 290.73 331.05 290.73 273.45 311.15 233.13 301.42 190.83 314.07 144.25 298.97 144.25 283.68 178.97 267.59 190.83 247.7 248.54 228.42 264.02 201.13 331.05"/>
        <polygon class="cls-10" points="314.07 331.05 321.78 300.73 334.26 285.31 339.82 267.12 343.71 271.08 343.71 288.47 334.26 302.31 334.26 331.16 314.07 331.05"/>
        <polygon class="cls-10" points="328.89 237.65 330.96 225.48 336.52 218.5 339.13 222.65 335.65 228.07 337.22 239.65 328.89 237.65"/>
      </g>
    </g>
  </g>
  <g id="Trees">
    <g>
      <g>
        <path class="cls-10" d="M52.54,330.8c-1.15,1.15-14.51,1.66-19.37,1.66s-18.22-.51-19.37-1.66c-1.15-1.15,15.04-89.96,19.37-89.96s20.52,88.81,19.37,89.96Z"/>
        <path class="cls-14" d="M52.8,308.17c-3.3,1.26-15.53,6.24-18.17,7.69,0-.56,0-1.11,0-1.67,2.95-1.74,5.91-3.45,8.87-5.18,3.17-1.85,6.58-3.5,9.55-5.67.14-.11.06-.4-.14-.32-3.26,1.36-6.29,3.37-9.34,5.16-3.01,1.76-5.98,3.58-8.94,5.41-.01-4.26-.03-8.51-.05-12.77,4.77-1.91,9.55-4.46,13.94-7.08.15-.09.05-.37-.13-.3-4.65,1.92-9.48,4.18-13.82,6.81-.02-2.21-.02-4.43-.05-6.64-.12-11.4-.14-22.8-.43-34.2,2.9-1.46,5.89-2.75,8.78-4.22.19-.1.06-.43-.15-.35-2.94,1.15-5.77,2.51-8.66,3.78-.16-5.88-.38-11.76-.74-17.63-.01-.19-.3-.2-.3,0-.41,10.92-.37,21.84-.24,32.77-3-2.4-6.21-4.52-9.26-6.85-.12-.09-.23.11-.12.2,3.2,2.43,6.19,5.13,9.39,7.55,0,.62.01,1.23.02,1.85-3.26-1.49-6.56-2.87-9.85-4.28-.26-.11-.49.26-.23.38,3.35,1.61,6.7,3.25,10.09,4.77.08,5.41.17,10.82.24,16.23.12,9.45.33,18.9.53,28.34-6.15-3.11-12.35-6.14-18.58-9.07-.24-.11-.44.22-.21.36,6.08,3.48,12.38,6.64,18.81,9.45.17,7.85.33.7.43,8.56,0,.48.75.48.74,0-.11-10.01-.13-5.03-.15-15.04,3.24-.8,15.49-6.05,18.4-7.48.3-.15.09-.67-.23-.55Z"/>
      </g>
      <g>
        <path class="cls-10" d="M152.52,330.73c-.98.98-12.45,1.42-16.62,1.42s-15.64-.44-16.62-1.42c-.98-.98,12.9-77.2,16.62-77.2s17.6,76.22,16.62,77.2Z"/>
        <path class="cls-14" d="M152.75,311.3c-2.83,1.08-13.33,5.35-15.59,6.6,0-.48,0-.96,0-1.43,2.53-1.49,5.07-2.96,7.61-4.44,2.72-1.59,5.65-3,8.19-4.87.12-.09.06-.35-.12-.27-2.8,1.17-5.4,2.9-8.01,4.43-2.58,1.51-5.13,3.07-7.67,4.64-.01-3.65-.02-7.31-.05-10.96,4.09-1.64,8.2-3.83,11.96-6.08.13-.08.04-.32-.11-.26-3.99,1.65-8.14,3.59-11.86,5.84-.01-1.9-.02-3.8-.04-5.7-.1-9.78-.12-19.57-.37-29.35,2.49-1.26,5.05-2.36,7.54-3.62.16-.08.05-.37-.13-.3-2.52.98-4.96,2.15-7.43,3.24-.13-5.05-.33-10.09-.63-15.13-.01-.17-.25-.17-.26,0-.35,9.37-.32,18.75-.2,28.12-2.58-2.06-5.33-3.88-7.95-5.87-.1-.08-.2.1-.1.17,2.74,2.09,5.31,4.4,8.06,6.48,0,.53.01,1.06.02,1.59-2.8-1.28-5.63-2.47-8.46-3.68-.22-.09-.42.22-.19.33,2.88,1.38,5.75,2.79,8.66,4.09.07,4.64.15,9.29.21,13.93.11,8.11.28,16.22.46,24.32-5.28-2.67-10.6-5.27-15.95-7.79-.2-.1-.38.19-.18.31,5.22,2.99,10.63,5.7,16.14,8.11.14,6.74.28,1.65.37,8.39,0,.41.64.41.64,0-.09-8.59-.11-5.36-.13-13.95,2.78-.69,13.29-5.19,15.79-6.42.26-.13.08-.57-.2-.47Z"/>
      </g>
      <g>
        <path class="cls-10" d="M44.21,331.13c.83.83,10.48,1.2,14,1.2s13.17-.37,14-1.2c.83-.83-10.87-65.01-14-65.01s-14.83,64.18-14,65.01Z"/>
        <path class="cls-9" d="M44.01,314.77c2.39.91,11.22,4.51,13.13,5.56,0-.4,0-.8,0-1.21-2.13-1.25-4.27-2.5-6.41-3.74-2.29-1.34-4.76-2.53-6.9-4.1-.1-.08-.05-.29.1-.23,2.36.98,4.55,2.44,6.75,3.73,2.17,1.27,4.32,2.59,6.46,3.91,0-3.08.02-6.15.04-9.23-3.44-1.38-6.9-3.23-10.07-5.12-.11-.07-.04-.27.09-.22,3.36,1.39,6.85,3.02,9.98,4.92.01-1.6.02-3.2.03-4.8.09-8.24.1-16.48.31-24.72-2.1-1.06-4.25-1.99-6.35-3.05-.14-.07-.04-.31.11-.25,2.13.83,4.17,1.81,6.26,2.73.11-4.25.28-8.5.53-12.74,0-.14.21-.14.22,0,.29,7.89.27,15.79.17,23.68,2.17-1.73,4.49-3.27,6.69-4.95.09-.07.17.08.08.14-2.31,1.76-4.47,3.7-6.79,5.46,0,.45-.01.89-.02,1.34,2.35-1.08,4.74-2.08,7.12-3.1.19-.08.35.19.16.28-2.42,1.16-4.84,2.35-7.29,3.44-.06,3.91-.12,7.82-.17,11.73-.09,6.83-.24,13.66-.38,20.48,4.44-2.25,8.92-4.44,13.43-6.56.17-.08.32.16.15.26-4.39,2.52-8.95,4.8-13.59,6.83-.12,5.67-.24,1.26-.31,6.93,0,.34-.54.35-.54,0,.08-7.24.09-4.38.11-11.62-2.34-.58-11.2-4.37-13.3-5.41-.22-.11-.06-.48.17-.39Z"/>
      </g>
      <g>
        <path class="cls-10" d="M398.62,330.6c-1.06,1.06-13.39,1.53-17.87,1.53s-16.82-.47-17.87-1.53c-1.06-1.06,13.88-83.02,17.87-83.02s18.93,81.96,17.87,83.02Z"/>
        <path class="cls-9" d="M398.87,309.71c-3.05,1.16-14.33,5.76-16.77,7.1,0-.51,0-1.03,0-1.54,2.72-1.6,5.45-3.19,8.18-4.78,2.93-1.7,6.08-3.23,8.81-5.24.13-.1.06-.37-.12-.3-3.01,1.25-5.81,3.11-8.62,4.76-2.77,1.63-5.52,3.3-8.25,4.99-.01-3.93-.02-7.86-.05-11.78,4.4-1.76,8.82-4.12,12.86-6.54.14-.08.05-.34-.12-.28-4.29,1.77-8.75,3.86-12.75,6.28-.01-2.04-.02-4.08-.04-6.13-.11-10.52-.13-21.05-.4-31.56,2.68-1.35,5.43-2.54,8.11-3.9.18-.09.05-.4-.14-.32-2.71,1.06-5.33,2.32-7.99,3.49-.14-5.43-.35-10.85-.68-16.27-.01-.18-.27-.18-.28,0-.38,10.07-.34,20.16-.22,30.24-2.77-2.21-5.73-4.17-8.55-6.32-.11-.08-.22.1-.11.18,2.95,2.24,5.71,4.73,8.67,6.97,0,.57.01,1.14.02,1.71-3.01-1.37-6.06-2.65-9.09-3.95-.24-.1-.45.24-.21.36,3.09,1.48,6.18,3,9.31,4.4.07,4.99.16,9.99.22,14.98.11,8.72.31,17.44.49,26.16-5.67-2.87-11.4-5.67-17.15-8.37-.22-.1-.41.21-.19.33,5.61,3.21,11.43,6.13,17.35,8.72.15,7.24.3,1.77.4,9.02,0,.44.69.44.68,0-.1-9.24-.12-5.76-.14-15.01,2.99-.74,14.3-5.58,16.98-6.91.28-.14.08-.62-.21-.5Z"/>
      </g>
      <g>
        <path class="cls-10" d="M347.62,330.6c-1.06,1.06-13.39,1.53-17.87,1.53s-16.82-.47-17.87-1.53c-1.06-1.06,13.88-83.02,17.87-83.02s18.93,81.96,17.87,83.02Z"/>
        <path class="cls-9" d="M347.86,309.71c-3.05,1.16-14.33,5.76-16.77,7.1,0-.51,0-1.03,0-1.54,2.72-1.6,5.45-3.19,8.18-4.78,2.93-1.7,6.08-3.23,8.81-5.24.13-.1.06-.37-.12-.3-3.01,1.25-5.81,3.11-8.62,4.76-2.77,1.63-5.52,3.3-8.25,4.99-.01-3.93-.02-7.86-.05-11.78,4.4-1.76,8.82-4.12,12.86-6.54.14-.08.05-.34-.12-.28-4.29,1.77-8.75,3.86-12.75,6.28-.01-2.04-.02-4.08-.04-6.13-.11-10.52-.13-21.05-.4-31.56,2.68-1.35,5.43-2.54,8.11-3.9.18-.09.05-.4-.14-.32-2.71,1.06-5.33,2.32-7.99,3.49-.14-5.43-.35-10.85-.68-16.27-.01-.18-.27-.18-.28,0-.38,10.07-.34,20.16-.22,30.24-2.77-2.21-5.73-4.17-8.55-6.32-.11-.08-.22.1-.11.18,2.95,2.24,5.71,4.73,8.67,6.97,0,.57.01,1.14.02,1.71-3.01-1.37-6.06-2.65-9.09-3.95-.24-.1-.45.24-.21.36,3.09,1.48,6.18,3,9.31,4.4.07,4.99.16,9.99.22,14.98.11,8.72.31,17.44.49,26.16-5.67-2.87-11.4-5.67-17.15-8.37-.22-.1-.41.21-.19.33,5.61,3.21,11.43,6.13,17.35,8.72.15,7.24.3,1.77.4,9.02,0,.44.69.44.68,0-.1-9.24-.12-5.76-.14-15.01,2.99-.74,14.3-5.58,16.98-6.91.28-.14.08-.62-.21-.5Z"/>
      </g>
      <g>
        <path class="cls-10" d="M341.04,331.39c.74.74,9.36,1.07,12.49,1.07s11.75-.33,12.49-1.07c.74-.74-9.7-58.02-12.49-58.02s-13.23,57.28-12.49,58.02Z"/>
        <path class="cls-14" d="M340.87,316.79c2.13.81,10.02,4.02,11.72,4.96,0-.36,0-.72,0-1.08-1.9-1.12-3.81-2.23-5.72-3.34-2.05-1.19-4.25-2.26-6.16-3.66-.09-.07-.04-.26.09-.21,2.1.88,4.06,2.18,6.02,3.33,1.94,1.14,3.86,2.31,5.77,3.49,0-2.75.02-5.49.03-8.24-3.07-1.23-6.16-2.88-8.99-4.57-.1-.06-.03-.24.08-.19,3,1.24,6.12,2.7,8.91,4.39,0-1.43.02-2.85.03-4.28.08-7.35.09-14.71.28-22.06-1.87-.94-3.8-1.78-5.67-2.72-.12-.06-.04-.28.09-.23,1.9.74,3.72,1.62,5.59,2.44.1-3.79.25-7.58.48-11.37,0-.12.19-.13.2,0,.26,7.04.24,14.09.15,21.14,1.94-1.55,4-2.91,5.97-4.41.08-.06.15.07.07.13-2.06,1.57-3.99,3.31-6.06,4.87,0,.4,0,.8-.02,1.19,2.1-.96,4.23-1.85,6.36-2.76.17-.07.31.17.14.25-2.16,1.04-4.32,2.09-6.51,3.07-.05,3.49-.11,6.98-.15,10.47-.08,6.09-.21,12.19-.34,18.28,3.97-2.01,7.96-3.96,11.98-5.85.15-.07.29.14.13.23-3.92,2.25-7.99,4.28-12.13,6.09-.11,5.06-.21,1.01-.28,6.07,0,.31-.48.31-.48,0,.07-6.46.08-3.8.1-10.26-2.09-.52-9.99-3.9-11.87-4.83-.19-.1-.06-.43.15-.35Z"/>
      </g>
      <g>
        <path class="cls-10" d="M101.37,331.27c.74.74,9.36,1.07,12.49,1.07s11.75-.33,12.49-1.07c.74-.74-9.7-58.02-12.49-58.02s-13.23,57.28-12.49,58.02Z"/>
        <path class="cls-14" d="M101.2,316.67c2.13.81,10.02,4.02,11.72,4.96,0-.36,0-.72,0-1.08-1.9-1.12-3.81-2.23-5.72-3.34-2.05-1.19-4.25-2.26-6.16-3.66-.09-.07-.04-.26.09-.21,2.1.88,4.06,2.18,6.02,3.33,1.94,1.14,3.86,2.31,5.77,3.49,0-2.75.02-5.49.03-8.24-3.07-1.23-6.16-2.88-8.99-4.57-.1-.06-.03-.24.08-.19,3,1.24,6.12,2.7,8.91,4.39,0-1.43.02-2.85.03-4.28.08-7.35.09-14.71.28-22.06-1.87-.94-3.8-1.78-5.67-2.72-.12-.06-.04-.28.09-.23,1.9.74,3.72,1.62,5.59,2.44.1-3.79.25-7.58.48-11.37,0-.12.19-.13.2,0,.26,7.04.24,14.09.15,21.14,1.94-1.55,4-2.91,5.97-4.41.08-.06.15.07.07.13-2.06,1.57-3.99,3.31-6.06,4.87,0,.4,0,.8-.02,1.19,2.1-.96,4.23-1.85,6.36-2.76.17-.07.31.17.14.25-2.16,1.04-4.32,2.09-6.51,3.07-.05,3.49-.11,6.98-.15,10.47-.08,6.09-.21,12.19-.34,18.28,3.97-2.01,7.96-3.96,11.98-5.85.15-.07.29.14.13.23-3.92,2.25-7.99,4.28-12.13,6.09-.11,5.06-.21,1.12-.28,6.19,0,.31-.48.31-.48,0,.07-6.46.08-3.91.1-10.37-2.09-.52-9.99-3.9-11.87-4.83-.19-.1-.06-.43.15-.35Z"/>
      </g>
      <g>
        <path class="cls-10" d="M175.57,331.16c.74.74,9.36,1.07,12.49,1.07s11.75-.33,12.49-1.07c.74-.74-9.7-58.02-12.49-58.02s-13.23,57.28-12.49,58.02Z"/>
        <path class="cls-14" d="M175.4,316.56c2.13.81,10.02,4.02,11.72,4.96,0-.36,0-.72,0-1.08-1.9-1.12-3.81-2.23-5.72-3.34-2.05-1.19-4.25-2.26-6.16-3.66-.09-.07-.04-.26.09-.21,2.11.88,4.06,2.18,6.02,3.33,1.94,1.14,3.86,2.31,5.77,3.49,0-2.75.02-5.49.03-8.24-3.07-1.23-6.16-2.88-8.99-4.57-.1-.06-.03-.24.08-.19,3,1.24,6.12,2.7,8.91,4.39,0-1.43.02-2.85.03-4.28.08-7.35.09-14.71.28-22.06-1.87-.94-3.8-1.78-5.67-2.72-.12-.06-.04-.28.09-.23,1.9.74,3.72,1.62,5.59,2.44.1-3.79.25-7.58.48-11.37,0-.12.19-.13.2,0,.26,7.04.24,14.09.15,21.14,1.94-1.55,4-2.91,5.97-4.41.08-.06.15.07.08.13-2.06,1.57-3.99,3.31-6.06,4.87,0,.4,0,.8-.02,1.19,2.1-.96,4.23-1.85,6.36-2.76.17-.07.31.17.15.25-2.16,1.04-4.32,2.09-6.51,3.07-.05,3.49-.11,6.98-.15,10.47-.08,6.09-.21,12.19-.34,18.28,3.97-2.01,7.96-3.96,11.98-5.85.15-.07.29.14.13.23-3.92,2.25-7.99,4.28-12.13,6.09-.11,5.06-.21,1.24-.28,6.3,0,.31-.48.31-.48,0,.07-6.46.08-4.03.1-10.49-2.09-.52-9.99-3.9-11.87-4.83-.19-.1-.06-.43.15-.35Z"/>
      </g>
      <g>
        <path class="cls-10" d="M408.94,331.16c.74.74,9.36,1.07,12.49,1.07s11.75-.33,12.49-1.07c.74-.74-9.7-58.02-12.49-58.02s-13.23,57.28-12.49,58.02Z"/>
        <path class="cls-14" d="M408.77,316.56c2.13.81,10.02,4.02,11.72,4.96,0-.36,0-.72,0-1.08-1.9-1.12-3.81-2.23-5.72-3.34-2.05-1.19-4.25-2.26-6.16-3.66-.09-.07-.04-.26.09-.21,2.11.88,4.06,2.18,6.02,3.33,1.94,1.14,3.86,2.31,5.77,3.49,0-2.75.02-5.49.03-8.24-3.07-1.23-6.16-2.88-8.99-4.57-.1-.06-.03-.24.08-.19,3,1.24,6.12,2.7,8.91,4.39,0-1.43.02-2.85.03-4.28.08-7.35.09-14.71.28-22.06-1.87-.94-3.8-1.78-5.67-2.72-.12-.06-.04-.28.09-.23,1.9.74,3.72,1.62,5.59,2.44.1-3.79.25-7.58.48-11.37,0-.12.19-.13.2,0,.26,7.04.24,14.09.15,21.14,1.94-1.55,4-2.91,5.97-4.41.08-.06.15.07.08.13-2.06,1.57-3.99,3.31-6.06,4.87,0,.4,0,.8-.02,1.19,2.1-.96,4.23-1.85,6.36-2.76.17-.07.31.17.15.25-2.16,1.04-4.32,2.09-6.51,3.07-.05,3.49-.11,6.98-.15,10.47-.08,6.09-.21,12.19-.34,18.28,3.97-2.01,7.96-3.96,11.98-5.85.15-.07.29.14.13.23-3.92,2.25-7.99,4.28-12.13,6.09-.11,5.06-.21,1.24-.28,6.3,0,.31-.48.31-.48,0,.07-6.46.08-4.03.1-10.49-2.09-.52-9.99-3.9-11.87-4.83-.19-.1-.06-.43.15-.35Z"/>
      </g>
    </g>
  </g>
  <g id="Tent">
    <g>
      <rect class="cls-10" x="314.6" y="327.04" width="1.48" height="4.17"/>
      <rect class="cls-10" x="242.99" y="327.04" width="1.48" height="4.17"/>
      <polygon class="cls-6" points="242.99 331.2 263.89 300.12 285.34 331.2 242.99 331.2"/>
      <polygon class="cls-8" points="242.99 331.2 263.89 300.12 285.34 331.2 242.99 331.2"/>
      <polygon class="cls-6" points="263.89 300.12 294.53 300.12 315.82 331.2 285.34 331.2 263.89 300.12"/>
      <polygon class="cls-12" points="276.95 305.78 290.95 305.78 295.21 312 281.24 312 276.95 305.78"/>
      <polygon class="cls-13" points="257.02 331.2 270.2 331.2 263.89 300.12 257.02 331.2"/>
      <rect class="cls-10" x="284.59" y="327.04" width="1.48" height="4.17"/>
      <path class="cls-12" d="M263.89,300.12c-5.06,10.09-10.93,21.19-16.4,31.08,5.07-10.1,10.92-21.2,16.4-31.08h0Z"/>
      <path class="cls-12" d="M263.89,300.12c5.43,9.82,11.23,20.86,16.24,30.91-5.43-9.83-11.23-20.86-16.24-30.91h0Z"/>
      <path class="cls-6" d="M257.02,331.2s-.95-4.4-5.5-8.28l12.37-22.79-6.87,31.08Z"/>
      <path class="cls-6" d="M270.2,331.2l-6.31-31.08,12.88,23.98s-5.7.73-6.57,7.09Z"/>
    </g>
  </g>
  <g id="Text">
    <g>
      <g>
        <g>
          <path class="cls-6" d="M150.91,112.68s0-.01-.01-.01c-.24-.28-.51-.54-.79-.79t-.01-.01c-.24-.28-.51-.54-.79-.79t-.01-.01c-.24-.28-.51-.54-.79-.78t-.01-.01c-.24-.28-.51-.54-.79-.79t-.01-.01c-.24-.28-.51-.54-.79-.79t-.01-.01c-.24-.28-.51-.54-.79-.78t-.01-.01c-.24-.28-.51-.54-.79-.79t-.01-.01c-.24-.28-.51-.54-.78-.79t-.01-.01c-.24-.28-.51-.54-.79-.78t-.01-.01c-.81-.88-1.74-1.63-2.79-2.24V24.67c0-.41-.2-.63-.2-1.04,0-.63,0-.84-.21-1.25,0-.21-.2-.63-.2-.84-.21-.63-.21-.84-.42-1.25-.21-.21-.41-.63-.41-.84-.42-.63-.63-.84-.84-1.04-.21-.21-.41-.63-.63-.84l-.84-.84c0-.13-.16-.25-.34-.34-.11-.11-.24-.24-.41-.41l-.04-.04c0-.13-.16-.25-.34-.34-.11-.11-.24-.24-.41-.41l-.04-.04c0-.13-.16-.25-.34-.34-.11-.11-.24-.24-.41-.41l-.04-.04c0-.13-.16-.25-.34-.34-.11-.11-.24-.24-.41-.41l-.04-.04c0-.13-.16-.25-.34-.34-.11-.11-.24-.24-.41-.41l-.04-.04c0-.13-.16-.25-.34-.34-.11-.11-.24-.24-.41-.41l-.04-.04c0-.13-.16-.25-.34-.34-.11-.11-.24-.24-.41-.41l-.04-.04c0-.13-.16-.25-.34-.34-.11-.11-.24-.24-.41-.41l-.04-.04c0-.13-.16-.25-.34-.34-.11-.11-.24-.24-.41-.41l-.04-.04c0-.13-.16-.25-.34-.34l-.46-.46c0-.2-.41-.41-.63-.41,0-.21-.2-.21-.2-.21-.42-.2-.64-.41-1.05-.63-.21-.21-.63-.41-1.04-.84-.21,0-.63-.2-.84-.2-.41-.21-1.05-.21-1.25-.42-.41,0-.63,0-1.05-.2h-3.54c-.21.2-.63.2-.84.2-.63.21-1.04.21-1.25.42-.41,0-.63.2-.84.63-.63,0-.83.2-1.25.41-.2.21-.63.42-.84.63-.2.21-.41.42-1.04.63-.2.42-.41.63-.63.84-.21.21-.21.41-.41.41L35.28,106.09c-3.75,4.72-3.39,11.31,1.04,15.36.24.29.51.55.8.8.24.29.51.55.8.8.24.29.51.55.8.8.24.29.51.55.8.8.24.29.51.55.8.8.24.29.51.55.8.8.24.29.51.55.8.8.24.29.51.55.8.8.24.29.51.55.8.8.48.54,1.03,1.05,1.63,1.51,2.09,1.88,4.59,2.5,7.1,2.5h57.82v7.91c0,3.46,1.42,6.49,3.73,8.57l.03.03c.24.27.5.52.76.76.01.01.02.01.02.02.24.28.51.53.77.77l.03.03c.24.27.5.52.76.76.01.01.02.01.02.02.24.28.51.53.77.77l.03.03c.24.27.5.52.76.76.01.01.02.01.02.02.24.28.51.53.77.77l.03.03c.24.27.5.52.76.76.01.01.02.01.02.02.24.28.51.53.77.77l.03.03c.24.27.5.52.76.76.01.01.02.01.02.02,2.08,2.28,5.09,3.69,8.52,3.69,6.47,0,11.48-5.02,11.48-11.49v-15.87h2.09c6.47,0,11.69-5.01,11.69-11.48,0-3.32-1.47-6.36-3.82-8.47ZM110.03,67.96v33.75h-27.19l27.19-33.75Z"/>
          <path class="cls-8" d="M150.91,112.68s0-.01-.01-.01c-.24-.28-.51-.54-.79-.79t-.01-.01c-.24-.28-.51-.54-.79-.79t-.01-.01c-.24-.28-.51-.54-.79-.78t-.01-.01c-.24-.28-.51-.54-.79-.79t-.01-.01c-.24-.28-.51-.54-.79-.79t-.01-.01c-.24-.28-.51-.54-.79-.78t-.01-.01c-.24-.28-.51-.54-.79-.79t-.01-.01c-.24-.28-.51-.54-.78-.79t-.01-.01c-.24-.28-.51-.54-.79-.78t-.01-.01c-.81-.88-1.74-1.63-2.79-2.24V24.67c0-.41-.2-.63-.2-1.04,0-.63,0-.84-.21-1.25,0-.21-.2-.63-.2-.84-.21-.63-.21-.84-.42-1.25-.21-.21-.41-.63-.41-.84-.42-.63-.63-.84-.84-1.04-.21-.21-.41-.63-.63-.84l-.84-.84c0-.13-.16-.25-.34-.34-.11-.11-.24-.24-.41-.41l-.04-.04c0-.13-.16-.25-.34-.34-.11-.11-.24-.24-.41-.41l-.04-.04c0-.13-.16-.25-.34-.34-.11-.11-.24-.24-.41-.41l-.04-.04c0-.13-.16-.25-.34-.34-.11-.11-.24-.24-.41-.41l-.04-.04c0-.13-.16-.25-.34-.34-.11-.11-.24-.24-.41-.41l-.04-.04c0-.13-.16-.25-.34-.34-.11-.11-.24-.24-.41-.41l-.04-.04c0-.13-.16-.25-.34-.34-.11-.11-.24-.24-.41-.41l-.04-.04c0-.13-.16-.25-.34-.34-.11-.11-.24-.24-.41-.41l-.04-.04c0-.13-.16-.25-.34-.34-.11-.11-.24-.24-.41-.41l-.04-.04c0-.13-.16-.25-.34-.34l-.46-.46c0-.2-.41-.41-.63-.41,0-.21-.2-.21-.2-.21-.42-.2-.64-.41-1.05-.63-.21-.21-.63-.41-1.04-.84-.21,0-.63-.2-.84-.2-.41-.21-1.05-.21-1.25-.42-.41,0-.63,0-1.05-.2h-3.54c-.21.2-.63.2-.84.2-.63.21-1.04.21-1.25.42-.41,0-.63.2-.84.63-.63,0-.83.2-1.25.41-.2.21-.63.42-.84.63-.2.21-.41.42-1.04.63-.2.42-.41.63-.63.84-.21.21-.21.41-.41.41L35.28,106.09c-3.75,4.72-3.39,11.31,1.04,15.36.24.29.51.55.8.8.24.29.51.55.8.8.24.29.51.55.8.8.24.29.51.55.8.8.24.29.51.55.8.8.24.29.51.55.8.8.24.29.51.55.8.8.24.29.51.55.8.8.24.29.51.55.8.8.48.54,1.03,1.05,1.63,1.51,2.09,1.88,4.59,2.5,7.1,2.5h57.82v7.91c0,3.46,1.42,6.49,3.73,8.57l.03.03c.24.27.5.52.76.76.01.01.02.01.02.02.24.28.51.53.77.77l.03.03c.24.27.5.52.76.76.01.01.02.01.02.02.24.28.51.53.77.77l.03.03c.24.27.5.52.76.76.01.01.02.01.02.02.24.28.51.53.77.77l.03.03c.24.27.5.52.76.76.01.01.02.01.02.02.24.28.51.53.77.77l.03.03c.24.27.5.52.76.76.01.01.02.01.02.02,2.08,2.28,5.09,3.69,8.52,3.69,6.47,0,11.48-5.02,11.48-11.49v-15.87h2.09c6.47,0,11.69-5.01,11.69-11.48,0-3.32-1.47-6.36-3.82-8.47ZM110.03,67.96v33.75h-27.19l27.19-33.75Z"/>
        </g>
        <path class="cls-6" d="M146.78,113.19c0,6.47-5.22,11.48-11.69,11.48h-2.09v15.87c0,6.47-5.01,11.48-11.48,11.48s-11.49-5.01-11.49-11.48v-15.87H44.25c-2.51,0-5.01-.63-7.1-2.51-5.22-3.97-5.85-11.07-1.88-16.08L112.53,10.03c.21,0,.21-.21.42-.42.21-.21.42-.42.63-.84.62-.21.83-.42,1.04-.63.21-.21.63-.42.84-.63.42-.21.63-.42,1.25-.42.21-.42.42-.63.84-.63.21-.21.63-.21,1.25-.42.21,0,.62,0,.83-.21h3.55c.42.21.63.21,1.04.21.21.21.83.21,1.25.42.21,0,.63.21.84.21.42.42.83.63,1.04.83.42.21.63.42,1.04.63,0,0,.21,0,.21.21.21,0,.63.21.63.42.42.42.62.63.83.84.21.21.42.63.63.83.21.21.42.42.84,1.04,0,.21.21.63.42.84.21.42.21.63.42,1.25,0,.21.21.63.21.83.21.42.21.63.21,1.25,0,.42.21.63.21,1.04v84.99h2.09c6.47,0,11.69,5.22,11.69,11.48ZM110.03,50.12l-41.55,51.58h41.55v-51.58Z"/>
      </g>
      <g>
        <g>
          <path class="cls-6" d="M268.92,36.99c-2.38-3.62-5.11-6.97-8.17-9.94-.12-.13-.23-.24-.36-.35-.03-.03-.06-.07-.11-.11-.1-.11-.19-.21-.3-.31-.27-.29-.55-.55-.83-.83-.02-.02-.05-.05-.07-.06-.1-.1-.19-.19-.29-.29-.03-.03-.06-.07-.11-.11-.1-.11-.19-.21-.3-.31-.27-.29-.55-.55-.83-.83-.02-.02-.05-.05-.07-.06-.1-.1-.19-.19-.29-.29-.03-.03-.06-.07-.11-.11-.1-.11-.19-.21-.3-.31-.27-.29-.55-.55-.83-.83-.02-.02-.05-.05-.07-.06-.1-.1-.19-.19-.29-.29-.03-.03-.06-.07-.11-.11-.1-.11-.19-.21-.3-.31-.27-.29-.55-.55-.83-.83-.02-.02-.05-.05-.07-.06-.1-.11-.18-.2-.29-.29-.03-.03-.06-.07-.11-.11-8.38-8.65-19.32-14.37-31.58-14.37-16.5,0-30.07,9.81-38.84,23.17-9.19,13.37-13.98,30.7-14.2,49.91.21,19,5.01,36.54,14.2,49.91,2.37,3.53,5.07,6.85,8.08,9.8.14.14.28.27.41.4.02.01.04.03.05.05.24.25.5.5.74.74.13.14.25.27.38.39.14.14.28.27.41.4.02.01.04.03.05.05.24.25.5.5.74.74.13.14.25.27.38.39.14.14.28.27.41.4.02.01.04.03.05.05.24.25.5.5.74.74.13.14.25.27.38.39.14.14.28.27.41.4.02.01.04.03.05.05.24.25.5.5.74.74.13.14.25.27.38.39.14.14.28.27.41.4.02.01.04.03.05.05.24.25.5.5.74.74,8.25,8.24,18.9,13.77,31.14,13.77,16.07,0,29.85-10.03,38.63-23.18,8.98-13.37,13.99-30.91,13.99-49.91s-5.02-36.54-13.99-49.91ZM241.75,115.9c-6.06,8.98-12.94,12.94-19.42,12.94-3.56,0-7.32-1.2-11.01-3.79-.3-.38-.58-.78-.87-1.2-5.85-8.77-10.03-22.13-10.03-36.96s4.18-28.19,10.03-37.16c6.27-8.77,13.37-12.94,19.84-12.74,3.44-.11,6.99,1.02,10.48,3.43.33.45.66.89.98,1.36,5.85,8.98,10.03,22.13,10.03,37.16s-4.18,28.19-10.03,36.96Z"/>
          <path class="cls-8" d="M268.92,36.99c-2.38-3.62-5.11-6.97-8.17-9.94-.12-.13-.23-.24-.36-.35-.03-.03-.06-.07-.11-.11-.1-.11-.19-.21-.3-.31-.27-.29-.55-.55-.83-.83-.02-.02-.05-.05-.07-.06-.1-.1-.19-.19-.29-.29-.03-.03-.06-.07-.11-.11-.1-.11-.19-.21-.3-.31-.27-.29-.55-.55-.83-.83-.02-.02-.05-.05-.07-.06-.1-.1-.19-.19-.29-.29-.03-.03-.06-.07-.11-.11-.1-.11-.19-.21-.3-.31-.27-.29-.55-.55-.83-.83-.02-.02-.05-.05-.07-.06-.1-.1-.19-.19-.29-.29-.03-.03-.06-.07-.11-.11-.1-.11-.19-.21-.3-.31-.27-.29-.55-.55-.83-.83-.02-.02-.05-.05-.07-.06-.1-.11-.18-.2-.29-.29-.03-.03-.06-.07-.11-.11-8.38-8.65-19.32-14.37-31.58-14.37-16.5,0-30.07,9.81-38.84,23.17-9.19,13.37-13.98,30.7-14.2,49.91.21,19,5.01,36.54,14.2,49.91,2.37,3.53,5.07,6.85,8.08,9.8.14.14.28.27.41.4.02.01.04.03.05.05.24.25.5.5.74.74.13.14.25.27.38.39.14.14.28.27.41.4.02.01.04.03.05.05.24.25.5.5.74.74.13.14.25.27.38.39.14.14.28.27.41.4.02.01.04.03.05.05.24.25.5.5.74.74.13.14.25.27.38.39.14.14.28.27.41.4.02.01.04.03.05.05.24.25.5.5.74.74.13.14.25.27.38.39.14.14.28.27.41.4.02.01.04.03.05.05.24.25.5.5.74.74,8.25,8.24,18.9,13.77,31.14,13.77,16.07,0,29.85-10.03,38.63-23.18,8.98-13.37,13.99-30.91,13.99-49.91s-5.02-36.54-13.99-49.91ZM241.75,115.9c-6.06,8.98-12.94,12.94-19.42,12.94-3.56,0-7.32-1.2-11.01-3.79-.3-.38-.58-.78-.87-1.2-5.85-8.77-10.03-22.13-10.03-36.96s4.18-28.19,10.03-37.16c6.27-8.77,13.37-12.94,19.84-12.74,3.44-.11,6.99,1.02,10.48,3.43.33.45.66.89.98,1.36,5.85,8.98,10.03,22.13,10.03,37.16s-4.18,28.19-10.03,36.96Z"/>
        </g>
        <path class="cls-6" d="M169.3,78.94c.21-19.21,5.01-36.54,14.2-49.91,8.77-13.36,22.34-23.18,38.84-23.18s29.86,9.81,38.63,23.18c8.98,13.36,13.99,30.69,13.99,49.91s-5.01,36.54-13.99,49.9c-8.77,13.16-22.55,23.18-38.63,23.18s-30.07-10.02-38.84-23.18c-9.19-13.36-13.99-30.9-14.2-49.9ZM251.77,78.94c0-15.03-4.18-28.19-10.02-37.17-6.06-8.77-12.94-12.95-19.42-12.74-6.47-.21-13.57,3.97-19.83,12.74-5.85,8.98-10.02,22.13-10.02,37.17s4.18,28.19,10.02,36.96c6.26,8.98,13.36,12.95,19.83,12.95s13.36-3.97,19.42-12.95c5.85-8.77,10.02-22.13,10.02-36.96Z"/>
      </g>
      <g>
        <g>
          <path class="cls-6" d="M411.18,112.68s0-.01-.01-.01c-.25-.28-.52-.54-.79-.79t-.01-.01c-.25-.28-.52-.54-.79-.79t-.01-.01c-.25-.28-.52-.54-.78-.78t-.01-.01c-.25-.28-.52-.54-.79-.79t-.01-.01c-.25-.28-.52-.54-.79-.79t-.01-.01c-.25-.28-.52-.54-.78-.78t-.01-.01c-.25-.28-.52-.54-.79-.79t-.01-.01c-.25-.28-.52-.54-.79-.79t-.01-.01c-.25-.28-.52-.54-.78-.78t-.01-.01c-.81-.88-1.75-1.64-2.8-2.24V24.67c0-.41-.2-.63-.2-1.04,0-.63,0-.84-.21-1.25,0-.21-.2-.63-.2-.84-.21-.63-.21-.84-.42-1.25-.2-.21-.41-.63-.41-.84-.41-.63-.63-.84-.84-1.04-.21-.21-.41-.63-.63-.84l-.84-.84c0-.13-.16-.25-.34-.34-.11-.11-.24-.24-.41-.41l-.04-.04c0-.13-.16-.25-.34-.34-.11-.11-.24-.24-.41-.41l-.04-.04c0-.13-.16-.25-.34-.34-.11-.11-.24-.24-.41-.41l-.04-.04c0-.13-.16-.25-.34-.34l-.41-.41-.04-.04c0-.13-.16-.25-.34-.34-.11-.11-.24-.24-.41-.41l-.04-.04c0-.13-.16-.25-.34-.34-.11-.11-.24-.24-.41-.41l-.04-.04c0-.13-.16-.25-.34-.34-.11-.11-.24-.24-.41-.41l-.04-.04c0-.13-.16-.25-.34-.34-.11-.11-.24-.24-.41-.41l-.04-.04c0-.13-.16-.25-.34-.34-.11-.11-.24-.24-.41-.41l-.04-.04c0-.13-.16-.25-.34-.34l-.46-.46c0-.2-.41-.41-.63-.41,0-.21-.21-.21-.21-.21-.41-.2-.63-.41-1.04-.63-.21-.21-.63-.41-1.04-.84-.21,0-.63-.2-.84-.2-.41-.21-1.04-.21-1.25-.42-.42,0-.63,0-1.05-.2h-3.54c-.21.2-.63.2-.84.2-.63.21-1.04.21-1.25.42-.41,0-.63.2-.84.63-.62,0-.83.2-1.25.41-.2.21-.63.42-.83.63-.21.21-.42.42-1.05.63-.21.42-.41.63-.63.84-.21.21-.21.41-.41.41l-77.26,96.06c-3.75,4.72-3.39,11.31,1.04,15.36.24.29.51.55.8.8.24.29.51.55.8.8.24.29.51.55.8.8.24.29.51.55.8.8.24.29.51.55.8.8.24.29.51.55.8.8.24.29.51.55.8.8.24.29.51.55.8.8.24.29.51.55.8.8.48.54,1.03,1.05,1.63,1.51,2.09,1.88,4.59,2.5,7.1,2.5h57.82v7.91c0,3.45,1.42,6.49,3.73,8.57.01.01.02.01.02.02.24.28.51.53.77.77l.03.03c.24.27.5.52.76.76.01.01.02.01.02.02.24.28.51.53.77.77l.03.03c.24.27.5.52.76.76.01.01.02.01.02.02.24.28.51.53.77.77l.03.03c.24.27.5.52.76.76.01.01.02.01.02.02.24.28.51.53.77.77l.03.03c.24.27.5.52.76.76.01.01.02.01.02.02.24.28.51.53.77.77l.03.03c2.08,2.28,5.08,3.68,8.51,3.68,6.47,0,11.48-5.02,11.48-11.49v-15.87h2.09c6.48,0,11.7-5.01,11.7-11.48,0-3.32-1.47-6.36-3.82-8.47ZM370.29,67.96v33.75h-27.19l27.19-33.75Z"/>
          <path class="cls-8" d="M411.18,112.68s0-.01-.01-.01c-.25-.28-.52-.54-.79-.79t-.01-.01c-.25-.28-.52-.54-.79-.79t-.01-.01c-.25-.28-.52-.54-.78-.78t-.01-.01c-.25-.28-.52-.54-.79-.79t-.01-.01c-.25-.28-.52-.54-.79-.79t-.01-.01c-.25-.28-.52-.54-.78-.78t-.01-.01c-.25-.28-.52-.54-.79-.79t-.01-.01c-.25-.28-.52-.54-.79-.79t-.01-.01c-.25-.28-.52-.54-.78-.78t-.01-.01c-.81-.88-1.75-1.64-2.8-2.24V24.67c0-.41-.2-.63-.2-1.04,0-.63,0-.84-.21-1.25,0-.21-.2-.63-.2-.84-.21-.63-.21-.84-.42-1.25-.2-.21-.41-.63-.41-.84-.41-.63-.63-.84-.84-1.04-.21-.21-.41-.63-.63-.84l-.84-.84c0-.13-.16-.25-.34-.34-.11-.11-.24-.24-.41-.41l-.04-.04c0-.13-.16-.25-.34-.34-.11-.11-.24-.24-.41-.41l-.04-.04c0-.13-.16-.25-.34-.34-.11-.11-.24-.24-.41-.41l-.04-.04c0-.13-.16-.25-.34-.34l-.41-.41-.04-.04c0-.13-.16-.25-.34-.34-.11-.11-.24-.24-.41-.41l-.04-.04c0-.13-.16-.25-.34-.34-.11-.11-.24-.24-.41-.41l-.04-.04c0-.13-.16-.25-.34-.34-.11-.11-.24-.24-.41-.41l-.04-.04c0-.13-.16-.25-.34-.34-.11-.11-.24-.24-.41-.41l-.04-.04c0-.13-.16-.25-.34-.34-.11-.11-.24-.24-.41-.41l-.04-.04c0-.13-.16-.25-.34-.34l-.46-.46c0-.2-.41-.41-.63-.41,0-.21-.21-.21-.21-.21-.41-.2-.63-.41-1.04-.63-.21-.21-.63-.41-1.04-.84-.21,0-.63-.2-.84-.2-.41-.21-1.04-.21-1.25-.42-.42,0-.63,0-1.05-.2h-3.54c-.21.2-.63.2-.84.2-.63.21-1.04.21-1.25.42-.41,0-.63.2-.84.63-.62,0-.83.2-1.25.41-.2.21-.63.42-.83.63-.21.21-.42.42-1.05.63-.21.42-.41.63-.63.84-.21.21-.21.41-.41.41l-77.26,96.06c-3.75,4.72-3.39,11.31,1.04,15.36.24.29.51.55.8.8.24.29.51.55.8.8.24.29.51.55.8.8.24.29.51.55.8.8.24.29.51.55.8.8.24.29.51.55.8.8.24.29.51.55.8.8.24.29.51.55.8.8.24.29.51.55.8.8.48.54,1.03,1.05,1.63,1.51,2.09,1.88,4.59,2.5,7.1,2.5h57.82v7.91c0,3.45,1.42,6.49,3.73,8.57.01.01.02.01.02.02.24.28.51.53.77.77l.03.03c.24.27.5.52.76.76.01.01.02.01.02.02.24.28.51.53.77.77l.03.03c.24.27.5.52.76.76.01.01.02.01.02.02.24.28.51.53.77.77l.03.03c.24.27.5.52.76.76.01.01.02.01.02.02.24.28.51.53.77.77l.03.03c.24.27.5.52.76.76.01.01.02.01.02.02.24.28.51.53.77.77l.03.03c2.08,2.28,5.08,3.68,8.51,3.68,6.47,0,11.48-5.02,11.48-11.49v-15.87h2.09c6.48,0,11.7-5.01,11.7-11.48,0-3.32-1.47-6.36-3.82-8.47ZM370.29,67.96v33.75h-27.19l27.19-33.75Z"/>
        </g>
        <path class="cls-6" d="M407.04,113.19c0,6.47-5.22,11.48-11.69,11.48h-2.09v15.87c0,6.47-5.01,11.48-11.48,11.48s-11.49-5.01-11.49-11.48v-15.87h-65.78c-2.51,0-5.01-.63-7.1-2.51-5.22-3.97-5.85-11.07-1.88-16.08L372.79,10.03c.21,0,.21-.21.42-.42.21-.21.42-.42.63-.84.63-.21.84-.42,1.04-.63.21-.21.63-.42.84-.63.42-.21.63-.42,1.25-.42.21-.42.42-.63.84-.63.21-.21.63-.21,1.25-.42.21,0,.63,0,.84-.21h3.55c.42.21.63.21,1.04.21.21.21.84.21,1.25.42.21,0,.63.21.84.21.42.42.83.63,1.04.83.42.21.63.42,1.04.63,0,0,.21,0,.21.21.21,0,.63.21.63.42.42.42.63.63.84.84.21.21.42.63.63.83.21.21.42.42.84,1.04,0,.21.21.63.42.84.21.42.21.63.42,1.25,0,.21.2.63.2.83.21.42.21.63.21,1.25,0,.42.21.63.21,1.04v84.99h2.09c6.47,0,11.69,5.22,11.69,11.48ZM370.29,50.12l-41.56,51.58h41.56v-51.58Z"/>
      </g>
    </g>
  </g>
  <g id="Campfire">
    <g>
      <g>
        <circle class="cls-4" cx="230.48" cy="318.87" r="10.63"/>
        <circle class="cls-4" cx="230.48" cy="321.29" r="8.16"/>
      </g>
      <g>
        <g>
          <path class="cls-6" d="M231.21,329.43s-6.49-.95-6.87-.7-.74,2.14.04,2.6,6.73-.38,6.73-.38c0,0,.64-.57.11-1.53Z"/>
          <path class="cls-2" d="M231.21,329.43s-6.49-.95-6.87-.7-.74,2.14.04,2.6,6.73-.38,6.73-.38c0,0,.64-.57.11-1.53Z"/>
          <path class="cls-1" d="M224.37,328.8c.2-.04.51.6.44,1.33-.07.69-.33,1.15-.43,1.13-.11-.01-.47-.42-.41-1.3.04-.64.24-1.12.4-1.16Z"/>
          <g class="cls-15">
            <path class="cls-7" d="M225.05,328.98c.37-.03.75-.03,1.12-.01.19,0,.37.02.56.05.09.01.19.03.28.05.1.03.17.05.27.06.36.06.73.09,1.1.12.37.03.74.06,1.11.09-.37.03-.74.05-1.12.05-.37,0-.75-.02-1.12-.08-.09-.02-.2-.05-.28-.07-.08-.02-.17-.04-.26-.05-.18-.03-.36-.05-.55-.08l-1.11-.13Z"/>
            <path class="cls-7" d="M225.79,329.33c.26.04.53.08.78.13.26.05.52.1.77.14.25.03.51.02.78.01.26-.01.53-.02.8-.02-.26.07-.52.13-.78.16-.26.03-.53.06-.81.03-.27-.04-.53-.1-.78-.18-.26-.07-.51-.16-.75-.27Z"/>
            <path class="cls-7" d="M228.97,329.94c.34-.24.74-.41,1.17-.43.21-.01.43.02.64.11.1.04.2.11.28.19.04.04.08.09.1.16,0,.02.01.04.01.07,0,.02,0,.03-.01.05,0,.01,0,.02-.01.03-.02.03-.04.06-.06.08-.16.16-.36.27-.59.31-.11.02-.23.01-.34-.03-.1-.03-.2-.08-.29-.13-.09-.06-.19-.11-.24-.25-.01-.03,0-.08.02-.12.02-.03.06-.05.08-.06.06-.02.11-.03.16-.04.11-.01.21-.01.32,0,.1.01.21.04.29.11-.19-.09-.4-.07-.59-.03-.05.01-.1.03-.13.05-.04.02-.05.04-.03.06.02.06.12.12.2.16.09.04.18.08.28.1.09.03.18.03.27,0,.18-.04.36-.14.48-.27.02-.01.03-.03.03-.04h0s0,0,0,0c0,0,0,0,0,0,0-.03-.03-.07-.06-.1-.06-.07-.14-.12-.22-.16-.17-.08-.37-.11-.57-.12-.2,0-.4.03-.59.08-.2.05-.39.12-.58.21Z"/>
            <path class="cls-7" d="M231.13,330.57c-.25.13-.52.22-.81.26-.14.02-.29.02-.43,0-.15-.02-.29-.06-.42-.1-.27-.1-.52-.24-.76-.37-.24-.13-.5-.22-.77-.27.28-.02.57.03.83.14.26.11.5.24.76.33.25.1.51.13.79.12.27,0,.54-.05.82-.12Z"/>
            <path class="cls-7" d="M224.81,331.12c.33,0,.67,0,1,.01.33,0,.67.01.98-.04.33-.07.68-.07,1.01-.05.33.01.67.05,1,.11l-1,.03c-.33.01-.66.02-.98.09-.35.05-.68.03-1.02,0-.33-.03-.66-.08-.99-.15Z"/>
            <path class="cls-7" d="M229.31,330.91c-.28-.07-.55-.14-.83-.2-.14-.03-.28-.06-.41-.08-.14-.02-.26-.02-.4,0-.28.05-.55.11-.84.16-.14.02-.28.04-.43.05-.15.01-.29.02-.45-.02-.14-.03-.28-.07-.42-.12-.14-.06-.28-.11-.4-.24-.03-.04-.06-.08-.07-.13-.01-.05,0-.11.02-.15.05-.1.14-.14.21-.17.15-.05.3-.07.44-.07.15,0,.29,0,.44.02.14.02.29.05.42.14.03.02.07.05.08.12,0,.07-.06.09-.09.11-.07.03-.14.04-.22.05-.14.02-.29.02-.43.01.14-.01.28-.03.42-.06.12-.03.34-.08.19-.15-.11-.07-.25-.09-.38-.1-.14-.01-.28-.01-.41,0-.14.01-.27.04-.39.08-.06.02-.11.06-.12.09-.02.04,0,.07.03.11.07.08.2.14.33.19.13.05.26.08.4.11.25.05.54,0,.81-.03.28-.04.56-.1.84-.13.07,0,.14-.02.22-.01.08,0,.15.02.22.03.14.03.28.07.42.11.27.09.54.18.81.28Z"/>
            <path class="cls-7" d="M227.48,330.11c-.38-.06-.75-.17-1.11-.26l-.55-.15c-.18-.04-.36-.09-.56-.1.18-.07.39-.06.58-.04.19.02.38.06.57.11.37.11.73.24,1.06.44Z"/>
          </g>
        </g>
        <g>
          <path class="cls-6" d="M230.31,329.39s6.49-.88,6.88-.62c.39.25.72,2.15-.07,2.6s-6.72-.45-6.72-.45c0,0-.64-.57-.09-1.53Z"/>
          <path class="cls-2" d="M230.31,329.39s6.49-.88,6.88-.62c.39.25.72,2.15-.07,2.6s-6.72-.45-6.72-.45c0,0-.64-.57-.09-1.53Z"/>
          <path class="cls-1" d="M237.16,328.84c-.2-.05-.52.6-.45,1.32.06.69.31,1.15.42,1.14.11-.01.47-.41.42-1.3-.04-.65-.23-1.12-.39-1.16Z"/>
          <g class="cls-15">
            <path class="cls-7" d="M230.55,330.73l1.11.06c.18,0,.37.02.55.02.09,0,.18,0,.27-.01.08,0,.19-.02.28-.02.38,0,.75.05,1.12.11.37.06.73.14,1.09.23-.37-.03-.74-.06-1.11-.09-.37-.03-.74-.07-1.1-.07-.09,0-.17,0-.27.02-.1,0-.19,0-.29,0-.19,0-.38-.02-.56-.05-.37-.04-.74-.11-1.1-.2Z"/>
            <path class="cls-7" d="M231.22,330.71c.25-.09.51-.15.77-.21.26-.05.52-.1.79-.12.28-.01.54.04.81.09.26.06.52.13.77.22-.27-.02-.53-.05-.79-.08-.26-.03-.52-.07-.77-.05-.26.01-.52.05-.78.08-.26.03-.53.05-.79.07Z"/>
            <path class="cls-7" d="M234.45,330.35c.18.1.36.19.56.26.19.07.39.12.59.13.2,0,.4,0,.57-.08.09-.03.17-.08.23-.14.03-.03.06-.07.07-.09,0,0,0,0,0,0,0,0,0,0,0,.01h0s-.02-.04-.03-.05c-.11-.14-.29-.25-.46-.3-.09-.03-.18-.03-.27-.01-.09.02-.19.05-.28.08-.09.03-.18.09-.21.14-.01.02,0,.04.03.06.04.02.08.04.13.06.19.06.4.1.59.02-.09.06-.19.08-.3.09-.11,0-.21,0-.32-.02-.05-.01-.1-.03-.16-.05-.03-.01-.06-.04-.08-.07-.02-.04-.02-.09,0-.12.06-.13.17-.18.26-.23.1-.05.2-.08.3-.11.11-.03.23-.03.34,0,.22.06.41.18.56.36.02.02.04.05.05.08,0,0,0,.02.01.03,0,.02,0,.03,0,.05,0,.03,0,.05-.02.07-.03.07-.07.11-.12.15-.09.08-.19.13-.3.17-.21.07-.43.08-.64.06-.43-.06-.81-.26-1.13-.52Z"/>
            <path class="cls-7" d="M236.65,329.89c-.27-.09-.54-.15-.8-.18-.27-.03-.53-.02-.79.06-.26.07-.51.18-.78.27-.27.09-.56.12-.84.08.28-.03.54-.1.79-.21.25-.11.51-.23.78-.31.14-.04.28-.06.43-.07.15,0,.29.01.43.04.28.06.55.17.78.32Z"/>
            <path class="cls-7" d="M232.76,329.27c.33-.07.66-.12.99-.15.33-.03.67-.05,1.02,0,.32.07.65.07.98.09l1,.03c-.33.06-.66.1-1,.11-.33.02-.68.02-1.01-.05-.31-.05-.65-.03-.98-.03-.33,0-.66.01-1,.01Z"/>
            <path class="cls-7" d="M234.86,329.41c-.27.09-.55.15-.83.22-.14.03-.28.05-.42.07-.07,0-.14.02-.22.01-.08,0-.15-.02-.22-.03-.28-.06-.55-.14-.83-.2-.27-.06-.56-.13-.81-.09-.14.02-.27.05-.41.08-.13.04-.26.09-.34.16-.04.04-.05.07-.03.11,0,.03.06.07.11.1.12.05.25.09.39.11.14.02.27.04.41.04.14,0,.28-.01.39-.07.15-.05-.06-.13-.18-.16-.14-.04-.28-.07-.42-.09.14,0,.28.02.43.04.07.01.14.03.21.06.03.02.08.04.09.11-.01.06-.05.09-.08.11-.14.08-.29.1-.43.11-.15,0-.29,0-.44-.01-.15-.02-.29-.04-.43-.11-.07-.04-.15-.08-.2-.18-.02-.05-.02-.1,0-.15.01-.05.04-.09.08-.13.13-.12.28-.16.42-.21.14-.04.28-.07.43-.09.16-.02.31,0,.45.02.14.02.29.05.42.09.28.07.55.15.82.23.14.04.26.05.4.04.14,0,.28-.03.42-.05.28-.03.56-.09.84-.13Z"/>
            <path class="cls-7" d="M232.97,330.06c-.35.17-.72.28-1.1.35-.19.03-.38.06-.57.07-.19,0-.4,0-.58-.09.19.01.38-.03.56-.05l.56-.11c.37-.07.74-.14,1.13-.18Z"/>
            <path class="cls-7" d="M234.7,330.77c.3.1.57.19.86.26.14.04.29.06.43.08.15.02.29.02.45.04-.14.06-.3.1-.46.1-.16,0-.32,0-.47-.05-.15-.04-.3-.09-.44-.16-.14-.07-.27-.16-.38-.27Z"/>
          </g>
        </g>
      </g>
      <g>
        <g>
          <path class="cls-6" d="M235.72,315.62c0,.11.09.2.2.2s.2-.09.2-.2-.09-.2-.2-.2-.2.09-.2.2Z"/>
          <path class="cls-6" d="M233.57,306.98c0,.11.09.2.2.2s.2-.09.2-.2-.09-.2-.2-.2-.2.09-.2.2Z"/>
          <path class="cls-6" d="M225.87,314.31c.09.07.21.05.28-.04.07-.09.05-.21-.04-.28-.09-.07-.21-.05-.28.04-.07.09-.05.21.04.28Z"/>
          <path class="cls-6" d="M224.07,326.6c0,.11.09.2.2.2s.2-.09.2-.2-.09-.2-.2-.2-.2.09-.2.2Z"/>
          <path class="cls-6" d="M236.65,325.24c0,.11.09.2.2.2s.2-.09.2-.2-.09-.2-.2-.2-.2.09-.2.2Z"/>
          <path class="cls-6" d="M235.45,316.94c0,.15.12.27.27.27s.27-.12.27-.27-.12-.27-.27-.27-.27.12-.27.27Z"/>
          <path class="cls-6" d="M226.97,312.06c.12.09.29.07.38-.05.09-.12.07-.29-.05-.38-.12-.09-.29-.07-.38.05-.09.12-.07.29.05.38Z"/>
          <path class="cls-6" d="M224.59,322.13c0,.15.12.27.27.27s.27-.12.27-.27-.12-.27-.27-.27-.27.12-.27.27Z"/>
          <path class="cls-6" d="M235.02,316.55c0,.07.05.12.12.12s.12-.05.12-.12-.05-.12-.12-.12-.12.05-.12.12Z"/>
          <circle class="cls-6" cx="236.14" cy="320.37" r=".12"/>
          <path class="cls-6" d="M237.57,324.16c0,.07.05.12.12.12s.12-.05.12-.12-.05-.12-.12-.12-.12.05-.12.12Z"/>
          <path class="cls-6" d="M224.19,321.29c0,.07.05.12.12.12s.12-.05.12-.12-.05-.12-.12-.12-.12.05-.12.12Z"/>
          <path class="cls-6" d="M236.62,312.81c0,.07.05.12.12.12s.12-.05.12-.12-.05-.12-.12-.12-.12.05-.12.12Z"/>
          <circle class="cls-6" cx="231.3" cy="311.72" r=".12"/>
          <circle class="cls-6" cx="230.41" cy="309.94" r=".12"/>
        </g>
        <g>
          <path class="cls-6" d="M226.35,329.71c.84.53,3.87.92,3.87.92h.79s1.98-.46,2.26-.56c.28-.09.97.21,1.28,0,.31-.21,1.82-1.57,1.92-1.97s-.51-1.84-.53-2.12c-.02-.28.4-2.01.44-2.58.04-.57-1.65-3.39-1.8-3.85-.15-.46.49-2.13.49-2.13,0,0-1.39,1.46-1.35,1.8.04.34.68,1.14.71,1.38.03.25-.86,2.01-.83,2.26.03.25.43,1.06.39,1.42,0,0-.21-.83-.64-1.1-.43-.27-.86-.47-1.05-.64-.19-.17-.69-1.61-.65-1.78.04-.17.44-.62.39-1.21-.06-.59-1.32-2.62-1.32-2.62,0,0,.22,1.12,0,1.38-.22.26-1.01.68-1.09.89-.08.21.72,1.12.63,1.35-.09.23-1.89.59-2.07.83-.18.25-.68,2.12-.54,2.48.13.36.57,1.73.32,1.99s-.78.38-.8.27c-.02-.11.32-.97.19-1.5-.13-.53-.7-1.69-.74-1.97-.04-.28.35-1.72.51-2.05.16-.34-1.1,1.77-1.17,2.33-.07.56.36,2.36.31,2.39-.05.04-.26-.18-.32-.29-.06-.11,0-1.04,0-1.04,0,0-.72.84-.8,1.21-.08.37.34,1.26.27,1.57-.06.3-.39,1-.42,1.41-.04.4,1.06,1.34,1.36,1.53ZM234.93,327c-.03.37-.43,1.18-.47,1.21,0,0,.09-.59.09-.83,0-.23-.13-.44-.26-.91-.13-.47.3-1.07.3-1.07,0,0,.38,1.12.34,1.6ZM233.25,329.78s.49-.42.73-.64c.24-.22.95-.54,1.08-.75.13-.21.33-1.25.33-1.25,0,0,.18,1.04.09,1.38-.09.33-.91,1.07-1.18,1.21-.27.14-1.06.04-1.06.04ZM227.96,326.63c-.03.05-.4.74-.42,1.08-.02.36.19.81.34,1.04.15.23.32.84.32.84,0,0-.84-.39-.99-1.01-.14-.6.7-1.88.74-1.96Z"/>
          <path class="cls-6" d="M233.65,317.79s.87-.62.9-1.09c.03-.47-.54-1.44-.49-1.82.06-.38.25-.73.25-.73,0,0-.92.63-.92,1.15,0,.52.55,1.34.5,1.59-.05.25-.24.9-.24.9Z"/>
          <path class="cls-6" d="M228.45,320.64s.2-.62.17-.86c-.03-.24-.32-.57-.32-.57,0,0-.23.24-.12.64.11.4.26.79.26.79Z"/>
          <path class="cls-6" d="M226.3,320.53c.05-.06.43-.72.5-1.32.07-.6-.25-1.35-.36-1.55-.11-.19-.57-.46-.57-.46,0,0,.31.49.32.72,0,.22-.16.91-.18,1.18-.02.27.29,1.42.29,1.42Z"/>
          <path class="cls-6" d="M231.95,316.94s.65-.89.53-1.47c-.12-.58-.63-1.33-.82-1.53-.19-.19-.67-.65-.87-.97-.2-.31-.21-1.45,0-1.73.21-.28.57-.46.57-.46,0,0-.89-.04-1.46.75-.57.8-1.3,3.89-.96,4.59.34.7,1.3,1.39,1.3,1.39,0,0-.26-1.22-.17-1.53.09-.3,1,0,1.22.18.23.19.66.76.66.76Z"/>
          <path class="cls-6" d="M233.45,321.31s.4-.42.32-.78c-.09-.36-.6-.9-.63-1.07-.03-.17.12-.86.12-.86,0,0-.52.98-.4,1.28.11.3.22.76.22.76,0,0-.23-.15-.27-.27-.05-.12-.09-.33-.09-.33,0,0-.39.48-.27.82.12.34.8,1,.8,1,0,0-.02-.2,0-.31,0-.11.08-.05.22-.23Z"/>
          <g class="cls-16">
            <path class="cls-12" d="M230.67,330.64s2.37-.85,2.9-2.07c.33-.76-.56-2.32-.64-2.56-.08-.25.02-1.19-.1-1.57-.13-.38-1.8-1.37-1.95-1.63-.15-.26.29-1.3.29-1.3,0,0-1.27,1.03-1.46,1.62-.19.58.57,1.72.56,1.93,0,.21-.44.83-.44.83,0,0-.34-.43-.35-.83-.01-.4.18-.6.14-.88-.04-.28-.55-.81-.55-.81,0,0,.27.48.13.81-.13.33-.78.98-.68,1.49.1.51.85,1.69.79,2.01-.07.32-.24.55-.24.55,0,0-.21-.48-.27-.8-.07-.32-.14-.75-.14-.75,0,0-.39,2.1.01,2.7.4.59,2.01,1.28,2.01,1.28Z"/>
            <path class="cls-12" d="M231.3,315.97s.27-.61.28-.92c0-.31-.56-.73-.82-.97-.26-.24-.81-1-.76-1.4.05-.4.11-.7.11-.7,0,0-.79,2.26-.74,2.97s.46,1.17.46,1.17c0,0,.15-.68.48-.66.45.03.98.53.98.53Z"/>
            <path class="cls-12" d="M233.85,317.48s.51-.47.5-.79-.5-1.19-.5-1.19c0,0,.21,1.03.25,1.23.04.2-.25.75-.25.75Z"/>
            <path class="cls-12" d="M228,329.89s-1.03-.64-1.22-.81c-.19-.17-.47-1.07-.45-1.25.02-.18.35-.98.35-1.2s-.67-1.01-.67-1.01c0,0,.22.75.18.93s-.92,1.22-.86,1.61c.05.39.89,1.09,1.13,1.25.24.16,1.54.49,1.54.49Z"/>
            <path class="cls-12" d="M235.26,325.75s.68-1.77.62-2.24c-.06-.47-.86-2.24-.86-2.24,0,0,.06,1.51.12,1.75.06.24-.12.96-.12.96,0,0-.24-.52-.29-.71s.14-.92.14-.92c0,0-.5,1.31-.38,1.81.11.5.77,1.59.77,1.59Z"/>
          </g>
        </g>
      </g>
    </g>
  </g>
</svg>