<svg aria-hidden="true" style="position: absolute; width: 0; height: 0; overflow: hidden;"
  version="1.1" xmlns="http://www.w3.org/2000/svg" xmlns:xlink="http://www.w3.org/1999/xlink">
  <symbol id="cup" viewBox="0 0 32 32">
    <path fill-rule="evenodd" clip-rule="evenodd"
      d="M1 12C0.85037 12.0001 0.702657 12.0337 0.567753 12.0984C0.432849 12.1632 0.314192 12.2574 0.22053 12.3741C0.126868 12.4907 0.0605872 12.627 0.0265741 12.7727C-0.00743894 12.9184 -0.00831744 13.0699 0.0240034 13.216L3.328 28.084C3.57463 29.1945 4.19255 30.1877 5.07976 30.8997C5.96698 31.6116 7.07045 31.9998 8.208 32H19.792C20.9296 31.9998 22.033 31.6116 22.9202 30.8997C23.8075 30.1877 24.4254 29.1945 24.672 28.084L24.934 26.904C26.4638 27.1901 28.045 26.8706 29.3437 26.0129C30.6424 25.1552 31.557 23.8264 31.8944 22.307C32.2318 20.7876 31.9656 19.1966 31.1521 17.8698C30.3385 16.543 29.0412 15.5843 27.534 15.196L27.976 13.216C28.0083 13.0699 28.0074 12.9184 27.9734 12.7727C27.9394 12.627 27.8731 12.4907 27.7795 12.3741C27.6858 12.2574 27.5672 12.1632 27.4323 12.0984C27.2973 12.0337 27.1496 12.0001 27 12H1ZM26 25C25.7883 25.0001 25.577 24.9834 25.368 24.95L27.102 17.154C28.027 17.4219 28.8244 18.0144 29.3478 18.8227C29.8713 19.631 30.0857 20.601 29.9518 21.5546C29.8178 22.5083 29.3445 23.3817 28.6186 24.0145C27.8927 24.6474 26.963 24.9973 26 25ZM5.28 27.65L2.246 14H25.754L22.72 27.65C22.5721 28.3164 22.2014 28.9124 21.6691 29.3396C21.1367 29.7669 20.4746 29.9998 19.792 30H8.208C7.52542 29.9998 6.86329 29.7669 6.33095 29.3396C5.79862 28.9124 5.4279 28.3164 5.28 27.65Z"
      fill="currentColor" />
    <path
      d="M8.8 1.6L8.794 1.608L8.766 1.646C8.62048 1.84624 8.48433 2.05313 8.358 2.266C8.25068 2.43664 8.15641 2.61515 8.076 2.8C8.024 2.92 8.008 2.984 8.002 3.006V3.014C8.02506 3.1908 8.08724 3.36024 8.184 3.51C8.334 3.776 8.54 4.054 8.8 4.4L8.82 4.424C9.056 4.74 9.34 5.118 9.56 5.51C9.784 5.91 10 6.42 10 7C10 7.376 9.87 7.736 9.762 7.988C9.6464 8.25615 9.51137 8.51551 9.358 8.764C9.2011 9.02626 9.03225 9.2812 8.852 9.528L8.816 9.578L8.806 9.594L8.802 9.598C8.64314 9.81044 8.40639 9.95106 8.14384 9.98895C7.88129 10.0268 7.61444 9.95886 7.402 9.8C7.18956 9.64113 7.04893 9.40438 7.01105 9.14183C6.97317 8.87928 7.04114 8.61244 7.2 8.4L7.206 8.392L7.234 8.354C7.37952 8.15375 7.51567 7.94687 7.642 7.734C7.74932 7.56336 7.84359 7.38485 7.924 7.2C7.976 7.08 7.992 7.016 7.998 6.994C7.97671 6.81459 7.91517 6.64231 7.818 6.49C7.63235 6.17971 7.42588 5.88236 7.2 5.6L7.18 5.576C6.90979 5.23062 6.66259 4.86783 6.44 4.49C6.16759 4.03945 6.01604 3.52625 6 3C6 2.624 6.13 2.264 6.238 2.012C6.356 1.736 6.506 1.464 6.642 1.236C6.80088 0.974982 6.96967 0.72013 7.148 0.471998L7.198 0.401998C7.35686 0.18956 7.59361 0.0489314 7.85616 0.0110491C8.11872 -0.0268333 8.38556 0.0411339 8.598 0.199999C8.81044 0.358863 8.95107 0.595612 8.98895 0.858163C9.02683 1.12071 8.95886 1.38756 8.8 1.6ZM14.8 1.6L14.794 1.608L14.766 1.646C14.6205 1.84624 14.4843 2.05313 14.358 2.266C14.2507 2.43664 14.1564 2.61515 14.076 2.8C14.024 2.92 14.008 2.984 14.002 3.006V3.014C14.0251 3.1908 14.0872 3.36024 14.184 3.51C14.334 3.776 14.54 4.054 14.8 4.4L14.82 4.424C15.056 4.74 15.34 5.118 15.56 5.51C15.784 5.91 16 6.42 16 7C16 7.376 15.87 7.736 15.762 7.988C15.6464 8.25615 15.5114 8.51551 15.358 8.764C15.2011 9.02626 15.0323 9.2812 14.852 9.528L14.816 9.578L14.806 9.594L14.802 9.598C14.6431 9.81044 14.4064 9.95106 14.1438 9.98895C13.8813 10.0268 13.6144 9.95886 13.402 9.8C13.1896 9.64113 13.0489 9.40438 13.0111 9.14183C12.9732 8.87928 13.0411 8.61244 13.2 8.4L13.206 8.392L13.234 8.354C13.3795 8.15375 13.5157 7.94687 13.642 7.734C13.7493 7.56336 13.8436 7.38485 13.924 7.2C13.976 7.08 13.992 7.016 13.998 6.994C13.9767 6.81459 13.9152 6.64231 13.818 6.49C13.6323 6.17971 13.4259 5.88236 13.2 5.6L13.18 5.576C12.9098 5.23062 12.6626 4.86783 12.44 4.49C12.1676 4.03945 12.016 3.52625 12 3C12 2.624 12.13 2.264 12.238 2.012C12.356 1.736 12.506 1.464 12.642 1.236C12.8009 0.974982 12.9697 0.72013 13.148 0.471998L13.198 0.401998C13.3569 0.18956 13.5936 0.0489314 13.8562 0.011049C14.1187 -0.0268333 14.3856 0.0411339 14.598 0.199999C14.8104 0.358863 14.9511 0.595612 14.9889 0.858163C15.0268 1.12071 14.9589 1.38756 14.8 1.6ZM20.8 1.6L20.794 1.608L20.766 1.646C20.6205 1.84624 20.4843 2.05313 20.358 2.266C20.2507 2.43664 20.1564 2.61515 20.076 2.8C20.024 2.92 20.008 2.984 20.002 3.006V3.014C20.0251 3.1908 20.0872 3.36024 20.184 3.51C20.334 3.776 20.54 4.054 20.8 4.4L20.82 4.424C21.056 4.74 21.34 5.118 21.56 5.51C21.784 5.91 22 6.42 22 7C22 7.376 21.87 7.736 21.762 7.988C21.6464 8.25615 21.5114 8.51551 21.358 8.764C21.2017 9.02622 21.0336 9.28116 20.854 9.528L20.816 9.578L20.806 9.594L20.802 9.598C20.6431 9.81044 20.4064 9.95106 20.1438 9.98895C19.8813 10.0268 19.6144 9.95886 19.402 9.8C19.1896 9.64113 19.0489 9.40438 19.0111 9.14183C18.9732 8.87928 19.0411 8.61244 19.2 8.4L19.206 8.392L19.234 8.354C19.3795 8.15375 19.5157 7.94687 19.642 7.734C19.7493 7.56336 19.8436 7.38485 19.924 7.2C19.976 7.08 19.992 7.016 19.998 6.994C19.9767 6.81459 19.9152 6.64231 19.818 6.49C19.6324 6.17971 19.4259 5.88236 19.2 5.6L19.18 5.576C18.9098 5.23062 18.6626 4.86783 18.44 4.49C18.1676 4.03945 18.016 3.52625 18 3C18 2.624 18.13 2.264 18.238 2.012C18.356 1.736 18.506 1.464 18.642 1.236C18.8009 0.974982 18.9697 0.72013 19.148 0.471998L19.198 0.401998C19.3569 0.18956 19.5936 0.0489314 19.8562 0.011049C20.1187 -0.0268333 20.3856 0.0411339 20.598 0.199999C20.8104 0.358863 20.9511 0.595612 20.9889 0.858163C21.0268 1.12071 20.9589 1.38756 20.8 1.6Z"
      fill="currentColor" />
  </symbol>
  <symbol id="transmission-automatic" viewBox="0 0 32 32">
    <path fill-rule="evenodd" clip-rule="evenodd"
      d="M12 7C12 6.20435 12.3161 5.44129 12.8787 4.87868C13.4413 4.31607 14.2044 4 15 4H17C17.7956 4 18.5587 4.31607 19.1213 4.87868C19.6839 5.44129 20 6.20435 20 7V9C20 9.79565 19.6839 10.5587 19.1213 11.1213C18.5587 11.6839 17.7956 12 17 12V14H28C28.2652 14 28.5196 14.1054 28.7071 14.2929C28.8946 14.4804 29 14.7348 29 15V17C29 17.2652 28.8946 17.5196 28.7071 17.7071C28.5196 17.8946 28.2652 18 28 18C27.7348 18 27.4804 17.8946 27.2929 17.7071C27.1054 17.5196 27 17.2652 27 17V16H17V17C17 17.2652 16.8946 17.5196 16.7071 17.7071C16.5196 17.8946 16.2652 18 16 18C15.7348 18 15.4804 17.8946 15.2929 17.7071C15.1054 17.5196 15 17.2652 15 17V16H5V17C5 17.2652 4.89464 17.5196 4.70711 17.7071C4.51957 17.8946 4.26522 18 4 18C3.73478 18 3.48043 17.8946 3.29289 17.7071C3.10536 17.5196 3 17.2652 3 17V15C3 14.7348 3.10536 14.4804 3.29289 14.2929C3.48043 14.1054 3.73478 14 4 14H15V12C14.2044 12 13.4413 11.6839 12.8787 11.1213C12.3161 10.5587 12 9.79565 12 9V7ZM17 10C17.2652 10 17.5196 9.89464 17.7071 9.70711C17.8946 9.51957 18 9.26522 18 9V7C18 6.73478 17.8946 6.48043 17.7071 6.29289C17.5196 6.10536 17.2652 6 17 6H15C14.7348 6 14.4804 6.10536 14.2929 6.29289C14.1054 6.48043 14 6.73478 14 7V9C14 9.26522 14.1054 9.51957 14.2929 9.70711C14.4804 9.89464 14.7348 10 15 10H17ZM0 23C0 22.2044 0.31607 21.4413 0.87868 20.8787C1.44129 20.3161 2.20435 20 3 20H5C5.79565 20 6.55871 20.3161 7.12132 20.8787C7.68393 21.4413 8 22.2044 8 23V25C8 25.7956 7.68393 26.5587 7.12132 27.1213C6.55871 27.6839 5.79565 28 5 28H3C2.20435 28 1.44129 27.6839 0.87868 27.1213C0.31607 26.5587 0 25.7956 0 25V23ZM3 22C2.73478 22 2.48043 22.1054 2.29289 22.2929C2.10536 22.4804 2 22.7348 2 23V25C2 25.2652 2.10536 25.5196 2.29289 25.7071C2.48043 25.8946 2.73478 26 3 26H5C5.26522 26 5.51957 25.8946 5.70711 25.7071C5.89464 25.5196 6 25.2652 6 25V23C6 22.7348 5.89464 22.4804 5.70711 22.2929C5.51957 22.1054 5.26522 22 5 22H3ZM12 23C12 22.2044 12.3161 21.4413 12.8787 20.8787C13.4413 20.3161 14.2044 20 15 20H17C17.7956 20 18.5587 20.3161 19.1213 20.8787C19.6839 21.4413 20 22.2044 20 23V25C20 25.7956 19.6839 26.5587 19.1213 27.1213C18.5587 27.6839 17.7956 28 17 28H15C14.2044 28 13.4413 27.6839 12.8787 27.1213C12.3161 26.5587 12 25.7956 12 25V23ZM15 22C14.7348 22 14.4804 22.1054 14.2929 22.2929C14.1054 22.4804 14 22.7348 14 23V25C14 25.2652 14.1054 25.5196 14.2929 25.7071C14.4804 25.8946 14.7348 26 15 26H17C17.2652 26 17.5196 25.8946 17.7071 25.7071C17.8946 25.5196 18 25.2652 18 25V23C18 22.7348 17.8946 22.4804 17.7071 22.2929C17.5196 22.1054 17.2652 22 17 22H15ZM24 23C24 22.2044 24.3161 21.4413 24.8787 20.8787C25.4413 20.3161 26.2044 20 27 20H29C29.7956 20 30.5587 20.3161 31.1213 20.8787C31.6839 21.4413 32 22.2044 32 23V25C32 25.7956 31.6839 26.5587 31.1213 27.1213C30.5587 27.6839 29.7956 28 29 28H27C26.2044 28 25.4413 27.6839 24.8787 27.1213C24.3161 26.5587 24 25.7956 24 25V23ZM27 22C26.7348 22 26.4804 22.1054 26.2929 22.2929C26.1054 22.4804 26 22.7348 26 23V25C26 25.2652 26.1054 25.5196 26.2929 25.7071C26.4804 25.8946 26.7348 26 27 26H29C29.2652 26 29.5196 25.8946 29.7071 25.7071C29.8946 25.5196 30 25.2652 30 25V23C30 22.7348 29.8946 22.4804 29.7071 22.2929C29.5196 22.1054 29.2652 22 29 22H27Z"
      fill="currentColor" />
  </symbol>
  <symbol id="droplet" viewBox="0 0 32 32">
    <path fill-rule="evenodd" clip-rule="evenodd"
      d="M14.42 1.6C15.38 0.59 16 0 16 0C16.2187 0.725333 16.466 1.41733 16.742 2.076C18.366 5.968 20.888 8.776 23.136 11.276C25.756 14.192 28 16.69 28 20C28 23.1826 26.7357 26.2348 24.4853 28.4853C22.2348 30.7357 19.1826 32 16 32C12.8174 32 9.76515 30.7357 7.51472 28.4853C5.26428 26.2348 4 23.1826 4 20C4 13.336 11.16 5.034 14.42 1.6ZM15.246 3.642C13.9611 5.03141 12.7405 6.47893 11.588 7.98C10.136 9.88 8.716 11.996 7.668 14.12C6.608 16.266 6 18.276 6 20C6 22.6522 7.05357 25.1957 8.92893 27.0711C10.8043 28.9464 13.3478 30 16 30C18.6522 30 21.1957 28.9464 23.0711 27.0711C24.9464 25.1957 26 22.6522 26 20C26 17.598 24.408 15.686 21.638 12.6L21.578 12.536C19.5 10.22 17 7.442 15.246 3.642Z"
      fill="currentColor" />
    <path fill-rule="evenodd" clip-rule="evenodd"
      d="M9.10599 15.552C10.746 12.27 12.54 10.046 13.292 9.29199L14.708 10.708C14.128 11.288 12.452 13.33 10.894 16.448L9.10599 15.552Z"
      fill="currentColor" />
  </symbol>
  <symbol id="fuel" viewBox="0 0 32 32">
    <path
      d="M6 5C6 4.73478 6.10536 4.48043 6.2929 4.2929C6.48043 4.10536 6.73478 4 7 4H17C17.2653 4 17.5195 4.10536 17.707 4.2929C17.8947 4.48043 18 4.73478 18 5V15C18 15.2652 17.8947 15.5196 17.707 15.7071C17.5195 15.8946 17.2653 16 17 16H7C6.73478 16 6.48043 15.8946 6.2929 15.7071C6.10536 15.5196 6 15.2652 6 15V5Z"
      fill="currentColor" />
    <path
      d="M2 4C2 2.93914 2.42142 1.92171 3.17157 1.17157C3.92171 0.421427 4.93914 0 6 0H18C19.0608 0 20.0782 0.421427 20.8285 1.17157C21.5786 1.92171 22 2.93914 22 4V20C23.0608 20 24.0782 20.4214 24.8285 21.1715C25.5786 21.9218 26 22.9392 26 24V25C26 25.2653 26.1053 25.5195 26.293 25.707C26.4805 25.8947 26.7347 26 27 26C27.2653 26 27.5195 25.8947 27.707 25.707C27.8947 25.5195 28 25.2653 28 25V16H27C26.7347 16 26.4805 15.8946 26.293 15.7071C26.1053 15.5196 26 15.2652 26 15V8.75C26 8.48478 26.1053 8.23043 26.293 8.0429C26.4805 7.85536 26.7347 7.75 27 7.75H29.9899C29.968 6.798 29.884 5.962 29.588 5.306C29.4296 4.92456 29.1534 4.60366 28.8 4.39C28.432 4.17 27.872 4 27 4C26.7347 4 26.4805 3.89464 26.293 3.7071C26.1053 3.51957 26 3.26522 26 3C26 2.73478 26.1053 2.48043 26.293 2.2929C26.4805 2.10536 26.7347 2 27 2C28.128 1.99733 29.0693 2.22133 29.824 2.672C30.5899 3.128 31.092 3.774 31.412 4.486C32.0021 5.796 32 7.416 32 8.648V14.998C32.0003 15.1295 31.9746 15.2597 31.9245 15.3813C31.8742 15.5028 31.8006 15.6133 31.7078 15.7064C31.6149 15.7995 31.5046 15.8733 31.3832 15.9237C31.2618 15.9741 31.1315 16 31 16H30V25C30 25.7957 29.684 26.5587 29.1213 27.1213C28.5587 27.684 27.7957 28 27 28C26.2043 28 25.4413 27.684 24.8787 27.1213C24.316 26.5587 24 25.7957 24 25V24C24 23.4696 23.7893 22.9608 23.4142 22.5858C23.0392 22.2107 22.5304 22 22 22V30H23C23.2653 30 23.5195 30.1053 23.707 30.293C23.8947 30.4805 24 30.7347 24 31C24 31.2653 23.8947 31.5195 23.707 31.707C23.5195 31.8947 23.2653 32 23 32H1C0.734784 32 0.48043 31.8947 0.292893 31.707C0.105357 31.5195 0 31.2653 0 31C0 30.7347 0.105357 30.4805 0.292893 30.293C0.48043 30.1053 0.734784 30 1 30H2V4ZM20 4C20 3.46957 19.7893 2.96086 19.4142 2.58579C19.0392 2.21072 18.5304 2 18 2H6C5.46957 2 4.96086 2.21072 4.58579 2.58579C4.21072 2.96086 4 3.46957 4 4V30H20V4Z"
      fill="currentColor" />
  </symbol>
  <symbol id="grid3" viewBox="0 0 32 32">
    <path
      d="M12 2H2V30H12V2ZM30 2H20V12H30V2ZM30 20V30H20V20H30ZM0 2C0 1.46957 0.210714 0.960859 0.585786 0.585786C0.960859 0.210714 1.46957 0 2 0H12C12.5304 0 13.0391 0.210714 13.4142 0.585786C13.7893 0.960859 14 1.46957 14 2V30C14 30.5304 13.7893 31.0391 13.4142 31.4142C13.0391 31.7893 12.5304 32 12 32H2C1.46957 32 0.960859 31.7893 0.585786 31.4142C0.210714 31.0391 0 30.5304 0 30V2ZM18 2C18 1.46957 18.2107 0.960859 18.5858 0.585786C18.9609 0.210714 19.4696 0 20 0H30C30.5304 0 31.0391 0.210714 31.4142 0.585786C31.7893 0.960859 32 1.46957 32 2V12C32 12.5304 31.7893 13.0391 31.4142 13.4142C31.0391 13.7893 30.5304 14 30 14H20C19.4696 14 18.9609 13.7893 18.5858 13.4142C18.2107 13.0391 18 12.5304 18 12V2ZM20 18C19.4696 18 18.9609 18.2107 18.5858 18.5858C18.2107 18.9609 18 19.4696 18 20V30C18 30.5304 18.2107 31.0391 18.5858 31.4142C18.9609 31.7893 19.4696 32 20 32H30C30.5304 32 31.0391 31.7893 31.4142 31.4142C31.7893 31.0391 32 30.5304 32 30V20C32 19.4696 31.7893 18.9609 31.4142 18.5858C31.0391 18.2107 30.5304 18 30 18H20Z"
      fill="currentColor" />
  </symbol>
  <symbol id="grid4" viewBox="0 0 32 32">
    <path
      d="M2 5C2 4.20435 2.31607 3.44129 2.87868 2.87868C3.44129 2.31607 4.20435 2 5 2H11C11.7956 2 12.5587 2.31607 13.1213 2.87868C13.6839 3.44129 14 4.20435 14 5V11C14 11.7956 13.6839 12.5587 13.1213 13.1213C12.5587 13.6839 11.7956 14 11 14H5C4.20435 14 3.44129 13.6839 2.87868 13.1213C2.31607 12.5587 2 11.7956 2 11V5ZM5 4C4.73478 4 4.48043 4.10536 4.29289 4.29289C4.10536 4.48043 4 4.73478 4 5V11C4 11.2652 4.10536 11.5196 4.29289 11.7071C4.48043 11.8946 4.73478 12 5 12H11C11.2652 12 11.5196 11.8946 11.7071 11.7071C11.8946 11.5196 12 11.2652 12 11V5C12 4.73478 11.8946 4.48043 11.7071 4.29289C11.5196 4.10536 11.2652 4 11 4H5ZM18 5C18 4.20435 18.3161 3.44129 18.8787 2.87868C19.4413 2.31607 20.2044 2 21 2H27C27.7956 2 28.5587 2.31607 29.1213 2.87868C29.6839 3.44129 30 4.20435 30 5V11C30 11.7956 29.6839 12.5587 29.1213 13.1213C28.5587 13.6839 27.7956 14 27 14H21C20.2044 14 19.4413 13.6839 18.8787 13.1213C18.3161 12.5587 18 11.7956 18 11V5ZM21 4C20.7348 4 20.4804 4.10536 20.2929 4.29289C20.1054 4.48043 20 4.73478 20 5V11C20 11.2652 20.1054 11.5196 20.2929 11.7071C20.4804 11.8946 20.7348 12 21 12H27C27.2652 12 27.5196 11.8946 27.7071 11.7071C27.8946 11.5196 28 11.2652 28 11V5C28 4.73478 27.8946 4.48043 27.7071 4.29289C27.5196 4.10536 27.2652 4 27 4H21ZM2 21C2 20.2044 2.31607 19.4413 2.87868 18.8787C3.44129 18.3161 4.20435 18 5 18H11C11.7956 18 12.5587 18.3161 13.1213 18.8787C13.6839 19.4413 14 20.2044 14 21V27C14 27.7956 13.6839 28.5587 13.1213 29.1213C12.5587 29.6839 11.7956 30 11 30H5C4.20435 30 3.44129 29.6839 2.87868 29.1213C2.31607 28.5587 2 27.7956 2 27V21ZM5 20C4.73478 20 4.48043 20.1054 4.29289 20.2929C4.10536 20.4804 4 20.7348 4 21V27C4 27.2652 4.10536 27.5196 4.29289 27.7071C4.48043 27.8946 4.73478 28 5 28H11C11.2652 28 11.5196 27.8946 11.7071 27.7071C11.8946 27.5196 12 27.2652 12 27V21C12 20.7348 11.8946 20.4804 11.7071 20.2929C11.5196 20.1054 11.2652 20 11 20H5ZM18 21C18 20.2044 18.3161 19.4413 18.8787 18.8787C19.4413 18.3161 20.2044 18 21 18H27C27.7956 18 28.5587 18.3161 29.1213 18.8787C29.6839 19.4413 30 20.2044 30 21V27C30 27.7956 29.6839 28.5587 29.1213 29.1213C28.5587 29.6839 27.7956 30 27 30H21C20.2044 30 19.4413 29.6839 18.8787 29.1213C18.3161 28.5587 18 27.7956 18 27V21ZM21 20C20.7348 20 20.4804 20.1054 20.2929 20.2929C20.1054 20.4804 20 20.7348 20 21V27C20 27.2652 20.1054 27.5196 20.2929 27.7071C20.4804 27.8946 20.7348 28 21 28H27C27.2652 28 27.5196 27.8946 27.7071 27.7071C27.8946 27.5196 28 27.2652 28 27V21C28 20.7348 27.8946 20.4804 27.7071 20.2929C27.5196 20.1054 27.2652 20 27 20H21Z"
      fill="currentColor" />
  </symbol>
  <symbol id="grid9" viewBox="0 0 32 32">
    <path
      d="M8 4V8H4V4H8ZM10 28V24C10 23.4696 9.78929 22.9609 9.41421 22.5858C9.03914 22.2107 8.53043 22 8 22H4C3.46957 22 2.96086 22.2107 2.58579 22.5858C2.21071 22.9609 2 23.4696 2 24V28C2 28.5304 2.21071 29.0391 2.58579 29.4142C2.96086 29.7893 3.46957 30 4 30H8C8.53043 30 9.03914 29.7893 9.41421 29.4142C9.78929 29.0391 10 28.5304 10 28ZM10 18V14C10 13.4696 9.78929 12.9609 9.41421 12.5858C9.03914 12.2107 8.53043 12 8 12H4C3.46957 12 2.96086 12.2107 2.58579 12.5858C2.21071 12.9609 2 13.4696 2 14V18C2 18.5304 2.21071 19.0391 2.58579 19.4142C2.96086 19.7893 3.46957 20 4 20H8C8.53043 20 9.03914 19.7893 9.41421 19.4142C9.78929 19.0391 10 18.5304 10 18ZM10 8V4C10 3.46957 9.78929 2.96086 9.41421 2.58579C9.03914 2.21071 8.53043 2 8 2H4C3.46957 2 2.96086 2.21071 2.58579 2.58579C2.21071 2.96086 2 3.46957 2 4V8C2 8.53043 2.21071 9.03914 2.58579 9.41421C2.96086 9.78929 3.46957 10 4 10H8C8.53043 10 9.03914 9.78929 9.41421 9.41421C9.78929 9.03914 10 8.53043 10 8ZM20 28V24C20 23.4696 19.7893 22.9609 19.4142 22.5858C19.0391 22.2107 18.5304 22 18 22H14C13.4696 22 12.9609 22.2107 12.5858 22.5858C12.2107 22.9609 12 23.4696 12 24V28C12 28.5304 12.2107 29.0391 12.5858 29.4142C12.9609 29.7893 13.4696 30 14 30H18C18.5304 30 19.0391 29.7893 19.4142 29.4142C19.7893 29.0391 20 28.5304 20 28ZM20 18V14C20 13.4696 19.7893 12.9609 19.4142 12.5858C19.0391 12.2107 18.5304 12 18 12H14C13.4696 12 12.9609 12.2107 12.5858 12.5858C12.2107 12.9609 12 13.4696 12 14V18C12 18.5304 12.2107 19.0391 12.5858 19.4142C12.9609 19.7893 13.4696 20 14 20H18C18.5304 20 19.0391 19.7893 19.4142 19.4142C19.7893 19.0391 20 18.5304 20 18ZM20 8V4C20 3.46957 19.7893 2.96086 19.4142 2.58579C19.0391 2.21071 18.5304 2 18 2H14C13.4696 2 12.9609 2.21071 12.5858 2.58579C12.2107 2.96086 12 3.46957 12 4V8C12 8.53043 12.2107 9.03914 12.5858 9.41421C12.9609 9.78929 13.4696 10 14 10H18C18.5304 10 19.0391 9.78929 19.4142 9.41421C19.7893 9.03914 20 8.53043 20 8ZM18 4V8H14V4H18ZM28 4V8H24V4H28ZM8 14V18H4V14H8ZM18 14V18H14V14H18ZM28 14H24V18H28V14ZM8 24V28H4V24H8ZM18 24V28H14V24H18ZM28 24V28H24V24H28ZM24 2C23.4696 2 22.9609 2.21071 22.5858 2.58579C22.2107 2.96086 22 3.46957 22 4V8C22 8.53043 22.2107 9.03914 22.5858 9.41421C22.9609 9.78929 23.4696 10 24 10H28C28.5304 10 29.0391 9.78929 29.4142 9.41421C29.7893 9.03914 30 8.53043 30 8V4C30 3.46957 29.7893 2.96086 29.4142 2.58579C29.0391 2.21071 28.5304 2 28 2H24ZM22 14C22 13.4696 22.2107 12.9609 22.5858 12.5858C22.9609 12.2107 23.4696 12 24 12H28C28.5304 12 29.0391 12.2107 29.4142 12.5858C29.7893 12.9609 30 13.4696 30 14V18C30 18.5304 29.7893 19.0391 29.4142 19.4142C29.0391 19.7893 28.5304 20 28 20H24C23.4696 20 22.9609 19.7893 22.5858 19.4142C22.2107 19.0391 22 18.5304 22 18V14ZM24 22C23.4696 22 22.9609 22.2107 22.5858 22.5858C22.2107 22.9609 22 23.4696 22 24V28C22 28.5304 22.2107 29.0391 22.5858 29.4142C22.9609 29.7893 23.4696 30 24 30H28C28.5304 30 29.0391 29.7893 29.4142 29.4142C29.7893 29.0391 30 28.5304 30 28V24C30 23.4696 29.7893 22.9609 29.4142 22.5858C29.0391 22.2107 28.5304 22 28 22H24Z"
      fill="currentColor" />
  </symbol>
  <symbol id="heart" viewBox="0 0 32 32">
    <path
      d="M16 13.1387L14.212 9.56067C13.768 8.67467 12.998 7.40067 11.908 6.37067C10.836 5.35667 9.552 4.66667 8 4.66667C4.648 4.66667 2 7.31867 2 10.5067C2 12.9287 3.108 14.6387 5.736 17.2467C6.41 17.9147 7.178 18.6367 8.028 19.4327C10.244 21.5127 13 24.1007 16 27.5607C19 24.1007 21.756 21.5127 23.972 19.4327C24.822 18.6367 25.592 17.9127 26.264 17.2467C28.892 14.6387 30 12.9287 30 10.5067C30 7.31867 27.352 4.66667 24 4.66667C22.446 4.66667 21.164 5.35667 20.092 6.37067C19.002 7.40067 18.232 8.67467 17.788 9.56067L16 13.1387ZM16.784 29.7227C16.6877 29.8368 16.5676 29.9284 16.4323 29.9913C16.2968 30.0543 16.1493 30.0868 16 30.0868C15.8507 30.0868 15.7032 30.0543 15.5677 29.9913C15.4324 29.9284 15.3123 29.8368 15.216 29.7227C12.014 25.9187 9.116 23.1987 6.73 20.9607C2.6 17.0827 0 14.6447 0 10.5067C0 6.17667 3.58 2.66667 8 2.66667C11.2 2.66667 13.438 4.76667 14.808 6.68267C15.328 7.41267 15.724 8.11467 16 8.66667C16.3463 7.97601 16.7448 7.31275 17.192 6.68267C18.562 4.76467 20.8 2.66667 24 2.66667C28.42 2.66667 32 6.17667 32 10.5067C32 14.6447 29.4 17.0827 25.27 20.9607C22.884 23.2007 19.986 25.9227 16.784 29.7227Z"
      fill="currentColor" />
  </symbol>
  <symbol id="map" viewBox="0 0 32 32">
    <path fill-rule="evenodd" clip-rule="evenodd"
      d="M31.6339 0.225646C31.7485 0.319518 31.8408 0.437643 31.904 0.571496C31.9674 0.705347 32.0002 0.851584 32 0.999646V28.9997C31.9998 29.2307 31.9197 29.4547 31.7731 29.6333C31.6266 29.812 31.4226 29.9344 31.196 29.9797L21.196 31.9797C21.0666 32.0054 20.9334 32.0054 20.804 31.9797L11 30.0197L1.196 31.9797C1.05098 32.0086 0.901331 32.0051 0.757842 31.9693C0.614352 31.9334 0.480592 31.8662 0.366198 31.7725C0.251805 31.6789 0.159627 31.5608 0.0963035 31.4272C0.0329803 31.2936 8.93054e-05 31.1475 0 30.9997V2.99965C0.000139564 2.76856 0.0803122 2.54464 0.226886 2.36598C0.373461 2.18733 0.57739 2.06494 0.804 2.01965L10.804 0.0196462C10.9334 -0.00621527 11.0666 -0.00621527 11.196 0.0196462L21 1.97965L30.804 0.0196462C30.949 -0.00952217 31.0986 -0.00617512 31.2421 0.0294462C31.3856 0.0650675 31.5195 0.132076 31.6339 0.225646ZM20 3.81965L12 2.21965V28.1797L20 29.7797V3.81965ZM22 29.7797L30 28.1797V2.21965L22 3.81965V29.7797ZM10 28.1797V2.21965L2 3.81965V29.7797L10 28.1797Z"
      fill="currentColor" />
  </symbol>
  <symbol id="people" viewBox="0 0 32 32">
    <path
      d="M30 28C30 28 32 28 32 26C32 24 30 18 22 18C14 18 12 24 12 26C12 28 14 28 14 28H30ZM14.044 26L14 25.992C14.002 25.464 14.334 23.932 15.52 22.552C16.624 21.2581 18.564 20 22 20C25.4339 20 27.3739 21.26 28.48 22.552C29.6661 23.932 29.996 25.4661 30 25.992L29.984 25.996L29.956 26H14.044ZM22 14C23.0608 14 24.0782 13.5786 24.8285 12.8284C25.5786 12.0783 26 11.0609 26 10C26 8.93914 25.5786 7.92171 24.8285 7.17157C24.0782 6.42142 23.0608 6 22 6C20.9392 6 19.9218 6.42142 19.1715 7.17157C18.4214 7.92171 18 8.93914 18 10C18 11.0609 18.4214 12.0783 19.1715 12.8284C19.9218 13.5786 20.9392 14 22 14ZM28 10C28 10.7879 27.8448 11.5681 27.5432 12.2961C27.2418 13.024 26.7998 13.6855 26.2427 14.2426C25.6854 14.7998 25.024 15.2417 24.2962 15.5433C23.5682 15.8448 22.788 16 22 16C21.212 16 20.4318 15.8448 19.7038 15.5433C18.976 15.2417 18.3146 14.7998 17.7573 14.2426C17.2002 13.6855 16.7582 13.024 16.4568 12.2961C16.1552 11.5681 16 10.7879 16 10C16 8.4087 16.6322 6.88258 17.7573 5.75736C18.8826 4.63214 20.4086 4 22 4C23.5914 4 25.1174 4.63214 26.2427 5.75736C27.3678 6.88258 28 8.4087 28 10ZM13.872 18.56C13.0715 18.3098 12.247 18.1443 11.412 18.0661C10.9428 18.0202 10.4715 17.9982 10 18C2 18 0 24 0 26C0 27.3333 0.666667 28 2 28H10.432C10.1356 27.3755 9.98779 26.691 10 26C10 23.98 10.754 21.916 12.18 20.192C12.666 19.604 13.232 19.0539 13.872 18.56ZM9.84 20C8.65706 21.7789 8.0177 23.8637 8 26H2C2 25.48 2.328 23.94 3.52 22.552C4.61 21.28 6.504 20.04 9.84 20.0021V20ZM3 11C3 9.4087 3.63214 7.88258 4.75736 6.75736C5.88258 5.63214 7.4087 5 9 5C10.5913 5 12.1174 5.63214 13.2426 6.75736C14.3679 7.88258 15 9.4087 15 11C15 12.5913 14.3679 14.1174 13.2426 15.2426C12.1174 16.3678 10.5913 17 9 17C7.4087 17 5.88258 16.3678 4.75736 15.2426C3.63214 14.1174 3 12.5913 3 11ZM9 7C7.93914 7 6.92171 7.42142 6.17157 8.17157C5.42142 8.92171 5 9.93914 5 11C5 12.0609 5.42142 13.0783 6.17157 13.8284C6.92171 14.5786 7.93914 15 9 15C10.0609 15 11.0783 14.5786 11.8284 13.8284C12.5786 13.0783 13 12.0609 13 11C13 9.93914 12.5786 8.92171 11.8284 8.17157C11.0783 7.42142 10.0609 7 9 7Z"
      fill="currentColor" />
  </symbol>
  <symbol id="radios" viewBox="0 0 32 32">
    <path
      d="M14 5C14 4.73478 14.1054 4.48043 14.2929 4.2929C14.4804 4.10536 14.7348 4 15 4H29C29.2653 4 29.5195 4.10536 29.707 4.2929C29.8947 4.48043 30 4.73478 30 5V7C30 7.26522 29.8947 7.51957 29.707 7.7071C29.5195 7.89464 29.2653 8 29 8H15C14.7348 8 14.4804 7.89464 14.2929 7.7071C14.1054 7.51957 14 7.26522 14 7V5ZM8.9407e-08 24C8.9407e-08 22.4086 0.632141 20.8826 1.75736 19.7573C2.88258 18.6322 4.4087 18 6 18C7.5913 18 9.11742 18.6322 10.2426 19.7573C11.3679 20.8826 12 22.4086 12 24C12 25.5914 11.3679 27.1174 10.2426 28.2427C9.11742 29.3678 7.5913 30 6 30C4.4087 30 2.88258 29.3678 1.75736 28.2427C0.632141 27.1174 8.9407e-08 25.5914 8.9407e-08 24ZM14 21C14 20.7347 14.1054 20.4805 14.2929 20.293C14.4804 20.1053 14.7348 20 15 20H29C29.2653 20 29.5195 20.1053 29.707 20.293C29.8947 20.4805 30 20.7347 30 21V23C30 23.2653 29.8947 23.5195 29.707 23.707C29.5195 23.8947 29.2653 24 29 24H15C14.7348 24 14.4804 23.8947 14.2929 23.707C14.1054 23.5195 14 23.2653 14 23V21ZM14 11C14 10.7348 14.1054 10.4804 14.2929 10.2929C14.4804 10.1054 14.7348 10 15 10H25C25.2653 10 25.5195 10.1054 25.707 10.2929C25.8947 10.4804 26 10.7348 26 11C26 11.2652 25.8947 11.5196 25.707 11.7071C25.5195 11.8946 25.2653 12 25 12H15C14.7348 12 14.4804 11.8946 14.2929 11.7071C14.1054 11.5196 14 11.2652 14 11ZM14 27C14 26.7347 14.1054 26.4805 14.2929 26.293C14.4804 26.1053 14.7348 26 15 26H25C25.2653 26 25.5195 26.1053 25.707 26.293C25.8947 26.4805 26 26.7347 26 27C26 27.2653 25.8947 27.5195 25.707 27.707C25.5195 27.8947 25.2653 28 25 28H15C14.7348 28 14.4804 27.8947 14.2929 27.707C14.1054 27.5195 14 27.2653 14 27ZM6 2C5.21206 2 4.43186 2.1552 3.7039 2.45672C2.97595 2.75826 2.31451 3.20021 1.75736 3.75736C1.20021 4.31451 0.758251 4.97595 0.456723 5.7039C0.155195 6.43186 0 7.21206 0 8C0 8.78794 0.155195 9.56814 0.456723 10.2961C0.758251 11.024 1.20021 11.6855 1.75736 12.2426C2.31451 12.7998 2.97595 13.2417 3.7039 13.5433C4.43186 13.8448 5.21206 14 6 14C7.5913 14 9.11742 13.3679 10.2426 12.2426C11.3679 11.1174 12 9.5913 12 8C12 6.4087 11.3679 4.88258 10.2426 3.75736C9.11742 2.63214 7.5913 2 6 2ZM6 11C5.20435 11 4.4413 10.6839 3.87867 10.1213C3.31606 9.5587 3 8.79565 3 8C3 7.20435 3.31606 6.4413 3.87867 5.87867C4.4413 5.31606 5.20435 5 6 5C6.79565 5 7.5587 5.31606 8.12133 5.87867C8.68394 6.4413 9 7.20435 9 8C9 8.79565 8.68394 9.5587 8.12133 10.1213C7.5587 10.6839 6.79565 11 6 11Z"
      fill="currentColor" />
  </symbol>
  <symbol id="star" viewBox="0 0 32 32">
    <path
      d="M15.1156 1.67634C15.4908 0.965187 16.5092 0.965189 16.8844 1.67634L20.661 8.8341C20.8056 9.10834 21.0694 9.29994 21.3748 9.35282L29.3494 10.7326C30.1416 10.8697 30.4564 11.8383 29.896 12.4149L24.2554 18.2184C24.0394 18.4408 23.9386 18.7508 23.9828 19.0577L25.1348 27.0682C25.2492 27.864 24.4252 28.4628 23.7038 28.108L16.4412 24.537C16.163 24.4002 15.837 24.4002 15.5588 24.537L8.29631 28.108C7.57475 28.4628 6.75079 27.864 6.86525 27.0682L8.01723 19.0577C8.06137 18.7508 7.96063 18.4408 7.74453 18.2184L2.10409 12.4149C1.54369 11.8383 1.85842 10.8697 2.65071 10.7326L10.6251 9.35282C10.9307 9.29994 11.1944 9.10834 11.3391 8.8341L15.1156 1.67634Z"
      fill="currentColor" />
  </symbol>
  <symbol id="tv" viewBox="0 0 32 32">
    <path
      d="M0 8C0 8 0 4 4 4H28C28 4 32 4 32 8V20C32 20 32 24 28 24H20C20 25.3333 20.1667 26.3333 20.5 27H22C22.2652 27 22.5196 27.1054 22.7071 27.2929C22.8946 27.4804 23 27.7348 23 28C23 28.2652 22.8946 28.5196 22.7071 28.7071C22.5196 28.8946 22.2652 29 22 29H10C9.73478 29 9.48043 28.8946 9.29289 28.7071C9.10536 28.5196 9 28.2652 9 28C9 27.7348 9.10536 27.4804 9.29289 27.2929C9.48043 27.1054 9.73478 27 10 27H11.5C11.8333 26.3333 12 25.3333 12 24H4C4 24 0 24 0 20V8ZM2.796 6.29C2.57644 6.44309 2.4012 6.65145 2.288 6.894C2.11952 7.24697 2.02168 7.62948 2 8.02V20C2 20.65 2.156 21.004 2.29 21.204C2.43 21.412 2.63133 21.5813 2.894 21.712C3.23168 21.8736 3.59663 21.9706 3.97 21.998L4.02 22H28C28.65 22 29.004 21.844 29.204 21.71C29.4236 21.5569 29.5988 21.3486 29.712 21.106C29.8736 20.7683 29.9706 20.4034 29.998 20.03L30 19.98V8C30 7.35 29.844 6.996 29.71 6.796C29.5569 6.57644 29.3486 6.4012 29.106 6.288C28.753 6.11952 28.3705 6.02168 27.98 6H4C3.35 6 2.996 6.156 2.796 6.29Z"
      fill="currentColor" />
  </symbol>
  <symbol id="wind" viewBox="0 0 32 32">
    <path
      d="M25 4C23.6739 4 22.4021 4.52679 21.4645 5.46447C20.5268 6.40215 20 7.67392 20 9C20 9.26522 19.8946 9.51957 19.7071 9.70711C19.5196 9.89465 19.2652 10 19 10C18.7348 10 18.4804 9.89465 18.2929 9.70711C18.1054 9.51957 18 9.26522 18 9C18 7.61553 18.4105 6.26216 19.1797 5.11101C19.9489 3.95987 21.0421 3.06266 22.3212 2.53285C23.6003 2.00303 25.0078 1.86441 26.3656 2.13451C27.7235 2.4046 28.9708 3.07129 29.9497 4.05026C30.9287 5.02922 31.5954 6.2765 31.8655 7.63437C32.1356 8.99224 31.997 10.3997 31.4672 11.6788C30.9373 12.9579 30.0401 14.0511 28.889 14.8203C27.7378 15.5895 26.3845 16 25 16H1C0.734784 16 0.48043 15.8946 0.292893 15.7071C0.105357 15.5196 0 15.2652 0 15C0 14.7348 0.105357 14.4804 0.292893 14.2929C0.48043 14.1054 0.734784 14 1 14H25C26.3261 14 27.5979 13.4732 28.5355 12.5355C29.4732 11.5979 30 10.3261 30 9C30 7.67392 29.4732 6.40215 28.5355 5.46447C27.5979 4.52679 26.3261 4 25 4ZM11 6C10.4696 6 9.96086 6.21072 9.58579 6.58579C9.21071 6.96086 9 7.46957 9 8C9 8.26522 8.89464 8.51957 8.70711 8.70711C8.51957 8.89465 8.26522 9 8 9C7.73478 9 7.48043 8.89465 7.29289 8.70711C7.10536 8.51957 7 8.26522 7 8C7 7.20888 7.2346 6.43552 7.67412 5.77772C8.11365 5.11993 8.73836 4.60724 9.46927 4.30449C10.2002 4.00173 11.0044 3.92252 11.7804 4.07686C12.5563 4.2312 13.269 4.61217 13.8284 5.17158C14.3878 5.73099 14.7688 6.44372 14.9231 7.21964C15.0775 7.99557 14.9983 8.79983 14.6955 9.53074C14.3928 10.2616 13.8801 10.8864 13.2223 11.3259C12.5645 11.7654 11.7911 12 11 12H1C0.734784 12 0.48043 11.8946 0.292893 11.7071C0.105357 11.5196 0 11.2652 0 11C0 10.7348 0.105357 10.4804 0.292893 10.2929C0.48043 10.1054 0.734784 10 1 10H11C11.5304 10 12.0391 9.78929 12.4142 9.41422C12.7893 9.03914 13 8.53044 13 8C13 7.46957 12.7893 6.96086 12.4142 6.58579C12.0391 6.21072 11.5304 6 11 6ZM0 19C0 18.7348 0.105357 18.4804 0.292893 18.2929C0.48043 18.1054 0.734784 18 1 18H21.084C22.2707 18 23.4307 18.3519 24.4174 19.0112C25.4041 19.6705 26.1732 20.6075 26.6273 21.7039C27.0814 22.8003 27.2002 24.0067 26.9687 25.1705C26.7372 26.3344 26.1658 27.4035 25.3266 28.2426C24.4875 29.0818 23.4184 29.6532 22.2545 29.8847C21.0907 30.1162 19.8843 29.9974 18.7879 29.5433C17.6915 29.0892 16.7545 28.3201 16.0952 27.3334C15.4359 26.3467 15.084 25.1867 15.084 24C15.084 23.7348 15.1894 23.4804 15.3769 23.2929C15.5644 23.1054 15.8188 23 16.084 23C16.3492 23 16.6036 23.1054 16.7911 23.2929C16.9786 23.4804 17.084 23.7348 17.084 24C17.084 24.7911 17.3186 25.5645 17.7581 26.2223C18.1976 26.8801 18.8224 27.3928 19.5533 27.6955C20.2842 27.9983 21.0884 28.0775 21.8644 27.9231C22.6403 27.7688 23.353 27.3878 23.9124 26.8284C24.4718 26.269 24.8528 25.5563 25.0071 24.7804C25.1615 24.0044 25.0823 23.2002 24.7795 22.4693C24.4768 21.7384 23.9641 21.1137 23.3063 20.6741C22.6485 20.2346 21.8751 20 21.084 20H1C0.734784 20 0.48043 19.8946 0.292893 19.7071C0.105357 19.5196 0 19.2652 0 19Z"
      fill="currentColor" />
  </symbol>
  <symbol id="transmission-manual" viewBox="0 0 32 32">
    <path
      d="M5.48044 30.4992V25.5772C5.48044 25.1624 5.81606 24.8268 6.23083 24.8268H8.41563V21.533C8.41563 21.1195 8.75124 20.7826 9.16602 20.7826H13.4219V9.37627C13.1131 9.17847 12.8285 8.94748 12.5707 8.68969C11.6493 7.7683 11.0789 6.49466 11.0789 5.09078C11.0789 3.68571 11.648 2.41211 12.5707 1.49056C13.4921 0.569174 14.7657 0 16.1696 0C17.5747 0 18.8483 0.569174 19.7685 1.49056C20.6899 2.41195 21.2604 3.68558 21.2604 5.09078C21.2604 6.49597 20.6912 7.76944 19.7685 8.68969C19.5107 8.94747 19.2261 9.17718 18.9173 9.37627V20.7826H23.1732C23.588 20.7826 23.9236 21.1182 23.9236 21.533V24.8268H26.1084C26.5231 24.8268 26.8588 25.1624 26.8588 25.5772V30.4992H30.589C31.0038 30.4992 31.3394 30.8348 31.3394 31.2496C31.3394 31.6644 31.0038 32 30.589 32H1.75039C1.33565 32 1 31.6644 1 31.2496C1 30.8361 1.33562 30.4992 1.75039 30.4992H5.48044ZM25.3581 30.4992V26.3273H6.98129V30.4992H25.3581ZM14.5006 8.27099C14.5108 8.27737 14.5223 8.2812 14.5325 8.28758C15.0238 8.53898 15.5789 8.6819 16.1698 8.6819C16.7594 8.6819 17.3158 8.54025 17.8071 8.28758C17.8173 8.2812 17.8288 8.27609 17.839 8.27099C18.1606 8.10126 18.4541 7.88431 18.7081 7.63037C19.3577 6.98079 19.7597 6.08237 19.7597 5.09081C19.7597 4.09925 19.3577 3.20079 18.7081 2.55125C18.0585 1.90168 17.1601 1.49968 16.1685 1.49968C15.177 1.49968 14.2785 1.90168 13.629 2.55125C12.9794 3.20083 12.5774 4.09925 12.5774 5.09081C12.5774 6.08237 12.9794 6.98082 13.629 7.63037C13.8842 7.8856 14.1765 8.10127 14.4981 8.27099H14.5006ZM14.9217 10.027V20.7826H17.4166V10.027C17.0172 10.1278 16.5999 10.1814 16.1685 10.1814C15.7385 10.1814 15.3199 10.1291 14.9205 10.027H14.9217ZM9.9154 24.8281H22.423V22.2834H9.91671V24.8281H9.9154Z"
      fill="currentColor" />
  </symbol>
  <symbol id="microwave" viewBox="0 0 32 32">
    <path
      d="M30.4842 24.3992H1.51579C1.11405 24.3983 0.72902 24.2383 0.444947 23.9542C0.160874 23.6701 0.00088979 23.2851 0 22.8834L0 5.51579C0.00088979 5.11405 0.160874 4.72902 0.444947 4.44495C0.72902 4.16087 1.11405 4.00089 1.51579 4H30.4842C30.886 4.00089 31.271 4.16087 31.5551 4.44495C31.8391 4.72902 31.9991 5.11405 32 5.51579V22.8834C31.9991 23.2851 31.8391 23.6701 31.5551 23.9542C31.271 24.2383 30.886 24.3983 30.4842 24.3992ZM1.68421 22.7149H30.3158V5.68421H1.68421V22.7149Z"
      fill="currentColor" />
    <path
      d="M19.4122 20.6973H4.33853C4.22781 20.6977 4.11811 20.6762 4.01574 20.6341C3.91337 20.5919 3.82036 20.5299 3.74207 20.4516C3.66379 20.3733 3.60178 20.2803 3.55961 20.1779C3.51745 20.0756 3.49598 19.9659 3.49642 19.8552V8.54737C3.49598 8.43666 3.51745 8.32696 3.55961 8.22459C3.60178 8.12222 3.66379 8.02921 3.74207 7.95092C3.82036 7.87264 3.91337 7.81062 4.01574 7.76846C4.11811 7.7263 4.22781 7.70482 4.33853 7.70527H19.4122C19.6356 7.70527 19.8497 7.79399 20.0077 7.95191C20.1656 8.10984 20.2543 8.32403 20.2543 8.54737V19.8552C20.2543 20.0785 20.1656 20.2927 20.0077 20.4506C19.8497 20.6085 19.6356 20.6973 19.4122 20.6973ZM5.18063 19.0131H18.5701V9.38948H5.18063V19.0131Z"
      fill="currentColor" />
    <path
      d="M28.0017 27.168H23.9158C23.6924 27.168 23.4783 27.0793 23.3203 26.9213C23.1624 26.7634 23.0737 26.5492 23.0737 26.3259V23.557C23.0737 23.3337 23.1624 23.1195 23.3203 22.9616C23.4783 22.8037 23.6924 22.7149 23.9158 22.7149H28.0017C28.225 22.7149 28.4392 22.8037 28.5971 22.9616C28.7551 23.1195 28.8438 23.3337 28.8438 23.557V26.3259C28.8438 26.5492 28.7551 26.7634 28.5971 26.9213C28.4392 27.0793 28.225 27.168 28.0017 27.168ZM24.7579 25.4838H27.1596V24.3991H24.7579V25.4838Z"
      fill="currentColor" />
    <path
      d="M8.08421 27.168H4.00169C3.89098 27.1684 3.78127 27.147 3.6789 27.1048C3.57653 27.0626 3.48352 27.0006 3.40524 26.9223C3.32695 26.8441 3.26494 26.751 3.22278 26.6487C3.18062 26.5463 3.15914 26.4366 3.15958 26.3259V23.557C3.15914 23.4463 3.18062 23.3366 3.22278 23.2343C3.26494 23.1319 3.32695 23.0389 3.40524 22.9606C3.48352 22.8823 3.57653 22.8203 3.6789 22.7781C3.78127 22.736 3.89098 22.7145 4.00169 22.7149H8.08421C8.30756 22.7149 8.52175 22.8037 8.67967 22.9616C8.8376 23.1195 8.92632 23.3337 8.92632 23.557V26.3259C8.92632 26.5492 8.8376 26.7634 8.67967 26.9213C8.52175 27.0793 8.30756 27.168 8.08421 27.168ZM4.84379 25.4838H7.24211V24.3992H4.84379V25.4838Z"
      fill="currentColor" />
    <path
      d="M22.9053 24.3992C22.6819 24.3992 22.4677 24.3104 22.3098 24.1525C22.1519 23.9946 22.0632 23.7804 22.0632 23.5571V4.84211C22.0632 4.61877 22.1519 4.40457 22.3098 4.24665C22.4677 4.08872 22.6819 4 22.9053 4C23.1286 4 23.3428 4.08872 23.5007 4.24665C23.6586 4.40457 23.7474 4.61877 23.7474 4.84211V23.5571C23.7474 23.7804 23.6586 23.9946 23.5007 24.1525C23.3428 24.3104 23.1286 24.3992 22.9053 24.3992Z"
      fill="currentColor" />
    <path
      d="M27.0046 12.0404C27.9962 12.0404 28.8 11.2366 28.8 10.2451C28.8 9.25352 27.9962 8.44971 27.0046 8.44971C26.0131 8.44971 25.2093 9.25352 25.2093 10.2451C25.2093 11.2366 26.0131 12.0404 27.0046 12.0404Z"
      fill="currentColor" />
    <path
      d="M27.0046 17.147C27.8678 17.147 28.5676 16.4472 28.5676 15.584C28.5676 14.7208 27.8678 14.0211 27.0046 14.0211C26.1414 14.0211 25.4417 14.7208 25.4417 15.584C25.4417 16.4472 26.1414 17.147 27.0046 17.147Z"
      fill="currentColor" />
  </symbol>
  <symbol id="engine-hybrid" viewBox="0 0 32 32">
    <path
      d="M6.56482 15.895C7.96323 15.895 9.22936 15.3286 10.1456 14.4123C11.0619 13.496 11.6283 12.2309 11.6283 10.8315C11.6283 10.2523 11.5323 9.68982 11.35 9.16358C11.1648 8.63342 10.8904 8.13363 10.5347 7.6848L7.65944 4.0305C7.52029 3.85312 7.35859 3.71985 7.17926 3.63263C6.99992 3.54541 6.79315 3.50033 6.5658 3.50033C6.33844 3.50033 6.13167 3.54541 5.95234 3.63263C5.773 3.71985 5.61131 3.85312 5.47215 4.0305L2.58222 7.70244C2.23237 8.14735 1.96288 8.64028 1.78061 9.1626C1.59735 9.68786 1.50229 10.2504 1.50229 10.8305C1.50229 12.2289 2.06872 13.495 2.98499 14.4113C3.90126 15.3276 5.16738 15.894 6.5658 15.894L6.56482 15.895ZM23.8221 15.1169L18.0991 23.0507C18.0187 23.1624 17.9726 23.2859 17.9628 23.4104C17.954 23.5368 17.9795 23.6662 18.0422 23.7886C18.1049 23.9121 18.1941 24.0082 18.3 24.0728C18.4038 24.1365 18.5302 24.1708 18.6723 24.1708H21.2487C21.5554 24.1708 21.8455 24.2296 22.1169 24.3463C22.3884 24.4629 22.6314 24.6334 22.8451 24.8578C23.0577 25.0802 23.2155 25.3311 23.3174 25.6075V25.6085L23.3194 25.6075C23.4203 25.8799 23.4644 26.1729 23.4487 26.4836L23.3595 28.2603C23.3517 28.4239 23.3938 28.5738 23.4762 28.6954C23.5575 28.8159 23.679 28.911 23.8309 28.9639C23.9838 29.0168 24.1396 29.0187 24.2807 28.9746C24.4199 28.9315 24.5463 28.8414 24.6394 28.712L30.3624 20.7782C30.4428 20.6665 30.4888 20.543 30.4986 20.4185C30.5084 20.2921 30.482 20.1628 30.4192 20.0403C30.3565 19.9178 30.2673 19.8208 30.1615 19.7561C30.0576 19.6924 29.9302 19.6581 29.7891 19.6581H27.2128C26.906 19.6581 26.616 19.5993 26.3445 19.4827C26.0741 19.366 25.83 19.1955 25.6164 18.9711C25.4008 18.7447 25.2421 18.4939 25.1411 18.2214C25.0402 17.949 24.9971 17.656 25.0127 17.3453L25.1009 15.5687C25.1088 15.405 25.0666 15.2541 24.9843 15.1336C24.904 15.013 24.7815 14.918 24.6296 14.865C24.4767 14.8121 24.3209 14.8102 24.1798 14.8543C24.0406 14.8984 23.9142 14.9885 23.8211 15.1179L23.8221 15.1169ZM16.8859 22.1776L22.6089 14.2437C22.899 13.8429 23.2949 13.5627 23.7358 13.4245C24.1749 13.2863 24.658 13.2893 25.1235 13.4529C25.589 13.6166 25.9692 13.9174 26.2279 14.3016C26.4856 14.6847 26.6199 15.1492 26.5964 15.6392L26.5082 17.4159C26.5033 17.5178 26.517 17.6129 26.5493 17.7001C26.5817 17.7863 26.6326 17.8667 26.7022 17.9402C26.7738 18.0156 26.8512 18.0705 26.9325 18.1058C27.0129 18.1401 27.1079 18.1577 27.2147 18.1577H29.7911C30.2095 18.1577 30.6025 18.2704 30.9425 18.4782C31.2797 18.685 31.5589 18.9848 31.751 19.3602C31.9441 19.7365 32.0235 20.1373 31.9941 20.5293C31.9637 20.9232 31.8245 21.3083 31.5776 21.6504L25.8545 29.5842C25.5645 29.986 25.1686 30.2653 24.7276 30.4044C24.2886 30.5426 23.8054 30.5387 23.3399 30.376C22.8745 30.2124 22.4942 29.9125 22.2355 29.5274C21.9778 29.1442 21.8435 28.6807 21.867 28.1897L21.9552 26.413C21.9601 26.3111 21.9464 26.216 21.9141 26.1288L21.916 26.1278C21.8857 26.0455 21.8327 25.9652 21.7602 25.8887C21.6887 25.8133 21.6113 25.7584 21.5299 25.7231C21.4496 25.6888 21.3545 25.6712 21.2477 25.6712H18.6714C18.2529 25.6712 17.8599 25.5585 17.5199 25.3507C17.1828 25.1439 16.9035 24.8441 16.7114 24.4687C16.5194 24.0924 16.439 23.6916 16.4684 23.2996C16.4988 22.9057 16.6379 22.5206 16.8849 22.1786L16.8859 22.1776ZM22.4011 5.06927C22.6422 4.73412 23.1087 4.65866 23.4438 4.89973C23.779 5.1408 23.8544 5.60727 23.6134 5.94242L9.57528 25.4036C9.33421 25.7388 8.86775 25.8142 8.5326 25.5742C8.19745 25.3331 8.12199 24.8656 8.36208 24.5305L22.4011 5.06927ZM2.69394 10.8315C2.69394 10.4179 3.03007 10.0818 3.44361 10.0818C3.85814 10.0818 4.19329 10.4179 4.19329 10.8315C4.19329 11.4861 4.45886 12.079 4.88711 12.5072C5.31536 12.9355 5.90824 13.2011 6.56286 13.2011C6.97739 13.2011 7.31253 13.5372 7.31253 13.9507C7.31253 14.3643 6.97641 14.7004 6.56286 14.7004C5.49469 14.7004 4.52648 14.2673 3.8258 13.5666C3.12512 12.8659 2.69198 11.8987 2.69198 10.8295L2.69394 10.8315ZM11.205 15.4726C10.0173 16.6603 8.3758 17.3953 6.56384 17.3953C4.75187 17.3953 3.11042 16.6603 1.9227 15.4726C0.734977 14.2849 0 12.6444 0 10.8315C0 10.0916 0.125436 9.36349 0.366509 8.67163C0.604641 7.98958 0.953511 7.34868 1.4043 6.77539L4.29129 3.10541C4.57156 2.74968 4.91161 2.47431 5.2987 2.28517C5.68578 2.09702 6.11109 2 6.56286 2C7.01462 2 7.43993 2.09702 7.82604 2.28517C8.21411 2.47333 8.55416 2.7487 8.83443 3.10541L11.7067 6.75677C12.1644 7.33496 12.5191 7.98174 12.7592 8.67163C13.0003 9.36349 13.1257 10.0916 13.1257 10.8315C13.1257 12.6444 12.3907 14.2849 11.204 15.4726H11.205Z"
      fill="currentColor" />
  </symbol>
  <symbol id="radio" viewBox="0 0 32 32">
    <path
      d="M28.9973 8.53261H10.0618L27.0443 2.06389C27.595 1.85457 27.8709 1.23861 27.6616 0.686658C27.4523 0.136033 26.835 -0.139945 26.2844 0.0707079L4.07032 8.53265H2.99975C1.34654 8.53265 0 9.87919 0 11.5324V29.0003C0 30.6535 1.34521 32.0001 2.99975 32.0001H29.0003C30.6535 32.0001 32 30.6535 32 29.0003L31.9987 11.5324C31.9987 9.87919 30.6535 8.53265 28.9989 8.53265L28.9973 8.53261ZM29.8639 28.9975C29.8639 29.4748 29.4759 29.8641 28.9973 29.8641H2.99951C2.52223 29.8641 2.13291 29.4762 2.13291 28.9975V11.5323C2.13291 11.055 2.52087 10.6657 2.99951 10.6657H29C29.4773 10.6657 29.8666 11.0537 29.8666 11.5323V29.0002L29.8639 28.9975Z"
      fill="currentColor" />
    <path
      d="M10.6655 13.8655C7.13645 13.8655 4.26609 16.7359 4.26609 20.2649C4.26609 23.7939 7.13652 26.6644 10.6655 26.6644C14.1945 26.6644 17.065 23.7939 17.065 20.2649C17.065 16.7359 14.1945 13.8655 10.6655 13.8655ZM10.6655 24.5312C8.31241 24.5312 6.39924 22.618 6.39924 20.2649C6.39924 17.9118 8.31241 15.9986 10.6655 15.9986C13.0186 15.9986 14.9318 17.9118 14.9318 20.2649C14.9318 22.618 13.0186 24.5312 10.6655 24.5312Z"
      fill="currentColor" />
    <path
      d="M26.6641 19.1983H20.2647C19.6754 19.1983 19.1981 19.6756 19.1981 20.2649C19.1981 20.8542 19.6754 21.3315 20.2647 21.3315H26.6641C27.2534 21.3315 27.7307 20.8542 27.7307 20.2649C27.7307 19.6756 27.2534 19.1983 26.6641 19.1983Z"
      fill="currentColor" />
    <path
      d="M26.6641 14.932H20.2647C19.6754 14.932 19.1981 15.4093 19.1981 15.9986C19.1981 16.5879 19.6754 17.0652 20.2647 17.0652H26.6641C27.2534 17.0652 27.7307 16.5879 27.7307 15.9986C27.7307 15.4093 27.2534 14.932 26.6641 14.932Z"
      fill="currentColor" />
    <path
      d="M26.6641 23.4646H20.2647C19.6754 23.4646 19.1981 23.9419 19.1981 24.5312C19.1981 25.1205 19.6754 25.5978 20.2647 25.5978H26.6641C27.2534 25.5978 27.7307 25.1205 27.7307 24.5312C27.7307 23.9419 27.2534 23.4646 26.6641 23.4646Z"
      fill="currentColor" />
  </symbol>
  <symbol id="refrigerator" viewBox="0 0 32 32">
    <path
      d="M25.6646 0.000148264H7.07457C5.37699 0.000148264 4 1.37714 4 3.07472V3.41225V26.8239C4 28.5215 5.37699 29.8985 7.07457 29.8985C7.24687 30.2925 7.41917 30.6852 7.59147 31.0792C7.8358 31.6385 8.38941 32 8.99952 32H10.3681C10.9782 32 11.5318 31.6385 11.7761 31.0792C11.9484 30.6852 12.1207 30.2925 12.293 29.8985H20.4463C20.6186 30.2925 20.7909 30.6852 20.9632 31.0792C21.2075 31.6385 21.7611 32 22.3712 32H23.7398C24.3499 32 24.9035 31.6385 25.1478 31.0792C25.3201 30.6852 25.4924 30.2925 25.6647 29.8985C27.3623 29.8985 28.7393 28.5215 28.7393 26.8239V3.07457C28.7393 1.37558 27.3636 0.000148264 25.6646 0.000148264ZM10.3679 30.4635H8.99938L8.75223 29.8985H10.6136L10.3679 30.4635ZM23.7394 30.4635H22.3709L22.1237 29.8985H23.9851L23.7394 30.4635ZM27.2023 26.8241C27.2023 27.6729 26.5146 28.3621 25.6658 28.3621H7.07569C6.22688 28.3621 5.53911 27.6743 5.53911 26.8241V15.1176V10.9189H27.2038C27.2024 16.2206 27.2023 21.5224 27.2023 26.8241ZM27.2023 9.38232H5.53766V3.07511C5.53766 2.22631 6.22544 1.53713 7.07424 1.53713H25.6643C26.5131 1.53713 27.2009 2.2249 27.2009 3.07511C27.2023 5.17802 27.2023 7.27956 27.2023 9.38232Z"
      fill="currentColor" />
    <path
      d="M8.68743 2.84586C7.53218 2.89106 6.63113 3.86413 6.67632 5.01938C6.72152 6.17464 7.69459 7.07569 8.84984 7.03049C10.0051 6.9853 10.9061 6.01223 10.861 4.85697C10.8158 3.70172 9.84269 2.80208 8.68743 2.84586ZM8.79053 5.49391C8.48406 5.50521 8.22561 5.26653 8.21289 4.96005C8.20159 4.65358 8.44027 4.39372 8.74675 4.38241C9.05322 4.37111 9.31308 4.60979 9.32439 4.91627C9.33569 5.22415 9.09701 5.4826 8.79053 5.49391Z"
      fill="currentColor" />
    <path
      d="M8.21163 21.2454H9.32452C10.1733 21.2454 10.8625 20.5576 10.8625 19.7074V13.9212C10.8625 13.0724 10.1747 12.3846 9.32452 12.3846H8.21163C7.36283 12.3846 6.67365 13.0724 6.67365 13.9212V19.7074C6.67506 20.5576 7.36283 21.2454 8.21163 21.2454ZM8.21163 13.9212H9.32452V19.7074H8.21163V13.9212Z"
      fill="currentColor" />
  </symbol>
  <symbol id="water" viewBox="0 0 32 32">
    <path
      d="M30.8588 22.7421C31.2778 22.7421 31.6168 22.403 31.6168 21.984C31.6168 21.565 31.2778 21.226 30.8588 21.226H30.7003L30.7018 18.1937C30.6959 18.1389 30.6959 18.0841 30.7018 18.0293L30.7003 16.5931V16.5946C30.7522 15.616 30.3598 14.6654 29.6328 14.008C28.9621 13.4113 28.0634 13.1404 27.175 13.2663H21.0896C21.0349 13.2204 20.9742 13.1833 20.9105 13.1522C20.5048 12.5097 19.9659 11.9633 19.3307 11.5487V6.49243C19.347 6.47615 19.3632 6.45986 19.3795 6.44357H22.4044C23.1107 6.44505 23.7888 6.16522 24.2892 5.66477C24.7882 5.16433 25.0666 4.48473 25.0636 3.77847C25.0606 3.07222 24.7764 2.39561 24.273 1.8996C23.7681 1.4036 23.0885 1.12971 22.3808 1.1371H19.3796C18.6689 0.410115 17.6947 0 16.6775 0C15.6603 0 14.6861 0.410115 13.9754 1.1371H11.2777C10.188 1.16079 9.2123 1.81966 8.78293 2.82202C8.40981 3.80811 8.64523 4.92153 9.38551 5.67069C9.883 6.16669 10.5567 6.44505 11.26 6.44357H13.9754C13.9917 6.45986 14.008 6.47615 14.0242 6.49243V11.639C13.3506 12.1172 12.7258 12.662 12.1602 13.2661H6.82261V11.371C6.82261 10.952 6.48207 10.6129 6.06454 10.6129H0.758067C0.339046 10.6129 0 10.952 0 11.371V20.4678C0 20.8868 0.339057 21.2259 0.758067 21.2259H6.06454C6.48208 21.2259 6.82261 20.8868 6.82261 20.4678V19.3307H11.9885C12.9982 20.721 14.6121 21.5427 16.3295 21.5427C18.047 21.5427 19.6609 20.7209 20.6706 19.3307H24.2581V21.2259H24.036C23.6184 21.2259 23.2779 21.5649 23.2779 21.9839C23.2779 22.4029 23.6185 22.742 24.036 22.742H26.7973C26.1503 23.9146 24.3321 27.3363 24.3321 28.7205C24.3321 30.5312 25.7994 32 27.6102 32C29.4209 32 30.8897 30.5312 30.8897 28.7205C30.8897 27.3361 29.07 23.9143 28.4245 22.742H30.8601L30.8588 22.7421ZM27.6103 30.4842C26.6376 30.4828 25.8499 29.6936 25.8484 28.7209C25.8484 28.0679 26.7398 26.112 27.6103 24.4359C28.4809 26.1119 29.3722 28.0678 29.3722 28.7209H29.3737C29.3722 29.6936 28.5846 30.4828 27.6103 30.4842ZM22.3808 2.6533C22.6843 2.6459 22.979 2.76139 23.1966 2.97311C23.4157 3.18484 23.5401 3.47503 23.5431 3.77856C23.546 4.08209 23.4276 4.37523 23.2144 4.5914C22.9997 4.80608 22.708 4.92749 22.4045 4.92749H20.2932C20.5256 4.1872 20.5256 3.39358 20.2932 2.65329L22.3808 2.6533ZM18.9517 3.7904C18.9517 4.37078 18.7282 4.93046 18.3269 5.35096C18.1507 5.41018 18.0042 5.53455 17.9139 5.69594C17.1617 6.18751 16.1919 6.18751 15.4413 5.69594C15.3628 5.55529 15.2399 5.44128 15.0933 5.37465C15.0252 5.22659 14.9127 5.10518 14.7706 5.02671C14.2805 4.27603 14.2805 3.30476 14.7706 2.55412C14.9334 2.4638 15.0563 2.31574 15.117 2.13953C15.7759 1.51473 16.7442 1.34148 17.5778 1.70129C18.4128 2.0596 18.9532 2.88281 18.9517 3.7904ZM11.2585 4.9275H11.26C10.9594 4.9275 10.6722 4.81054 10.459 4.60029C10.1333 4.26716 10.0341 3.77411 10.2073 3.34179C10.4175 2.94054 10.8247 2.67848 11.2778 2.65331H13.0619C12.8279 3.3936 12.8279 4.18722 13.0619 4.92751L11.2585 4.9275ZM15.5389 7.40604H15.5404C16.2807 7.6385 17.0743 7.6385 17.8146 7.40604V10.8751C17.369 10.7551 16.91 10.693 16.4495 10.6915C16.1401 10.6974 15.8336 10.7507 15.5404 10.8499L15.5389 7.40604ZM5.30655 19.7099H1.51621V12.1292H5.30655V19.7099ZM25.7744 21.226V18.5728C25.7744 18.1537 25.4338 17.8147 25.0163 17.8147H20.6161C20.2548 17.6474 19.827 17.7866 19.633 18.1345C18.9519 19.2968 17.7111 20.0148 16.3638 20.0267C15.0179 20.0386 13.7624 19.3427 13.0606 18.1937C12.9259 17.9598 12.6742 17.8147 12.4032 17.8147H6.82269V14.7824H12.4949C12.7141 14.7824 12.9213 14.6877 13.065 14.5233C13.7845 13.6942 14.6403 12.9939 15.5968 12.4535C15.6146 12.4461 15.6308 12.4372 15.6471 12.4298C15.8959 12.2995 16.1683 12.224 16.4496 12.2077C17.4461 12.2047 18.4025 12.6015 19.1058 13.3078C19.3723 13.5757 19.5989 13.8807 19.7765 14.2154C19.8653 14.3841 20.0164 14.5115 20.197 14.5751C20.3377 14.7084 20.5242 14.7824 20.7182 14.7824H27.23C27.27 14.7824 27.3085 14.7795 27.3469 14.7735C27.8059 14.6936 28.2768 14.8283 28.6232 15.1392C29.0171 15.5035 29.2229 16.0276 29.1859 16.5621V18.0294C29.1918 18.0842 29.1918 18.1389 29.1859 18.1937V21.226L25.7744 21.226Z"
      fill="currentColor" />
  </symbol>
  <symbol id="engine-diesel" viewBox="0 0 32 32">
    <path
      d="M24.0509 0.882804C26.4619 1.54214 27.9534 2.64329 27.9534 4.02849L27.9483 27.961C27.9478 28.3734 27.7334 28.7747 27.3508 28.9952C20.2013 33.1222 12.8823 32.8646 5.67615 29.04C5.27574 28.8464 5 28.4357 5 27.961V4.49292C5 2.41726 7.32759 1.29734 8.84414 0.882804C13.1453 -0.294268 19.7498 -0.294268 24.0509 0.882804ZM16.4767 10.8977C16.7328 10.8977 17.7507 12.1285 18.8226 13.759C21.8399 13.4562 24.2964 12.6757 25.5624 12.2057V6.65088C25.3045 6.76347 25.0407 6.86327 24.7747 6.95411C20.2451 8.47492 13.5785 8.3457 9.2786 7.28847C8.64925 7.08418 8.22544 7.01509 7.39057 6.67605V11.8381C9.62922 12.9772 11.9283 13.5525 14.121 13.7735C15.1963 12.1358 16.2197 10.8977 16.4767 10.8977ZM20.1621 15.9881C21.0374 17.5981 21.7195 19.2447 21.7195 20.3561C21.7195 20.5911 21.7063 20.8175 21.6829 21.0363C23.3735 20.6824 24.7271 20.2371 25.5624 19.9271V14.7313C24.2688 15.1599 22.3897 15.6785 20.1621 15.9881ZM20.6566 23.6366C18.6502 26.1681 14.3223 26.1728 12.307 23.6502C10.6879 23.3764 9.03222 22.9145 7.39057 22.1989V27.2313C13.4636 30.2755 19.5123 30.5237 25.5624 27.2629V22.4527C24.3654 22.8489 22.6676 23.3227 20.6566 23.6366ZM11.2658 21.0005C11.2449 20.7928 11.2334 20.5783 11.2334 20.3561C11.2334 19.2485 11.9117 17.6087 12.7823 16.0043C11.013 15.7433 9.19307 15.2636 7.39057 14.4776V19.559C8.67308 20.212 9.97517 20.6785 11.2658 21.0005ZM16.4767 13.9816C15.5239 15.3139 13.2942 18.8805 13.2942 20.3561C13.2942 24.5445 19.6591 24.5398 19.6591 20.3561C19.6591 18.8805 17.4294 15.3139 16.4767 13.9816ZM9.38838 4.84988C13.3504 5.92033 19.5889 5.92204 23.4254 4.87248C26.2262 4.10611 26.2266 3.95129 23.4254 3.18492C19.5736 2.13152 13.3215 2.13152 9.46965 3.18492C6.96164 3.87112 6.58846 4.07583 9.38838 4.84988Z"
      fill="currentColor" />
  </symbol>
  <symbol id="engine-petrol" viewBox="0 0 32 32">
    <path fill-rule="evenodd" clip-rule="evenodd"
      d="M28.1622 9.0348L28.6021 9.18299C29.0259 9.3254 29.3129 9.72416 29.3138 10.1737L29.3356 27.1403C29.3389 29.7648 27.2046 31.9072 24.5864 31.9105C19.0731 31.9175 13.4672 32.0847 7.96877 31.9435C5.23768 31.8738 3.03131 30.0063 3.0276 27.1725L3.00001 6.38384C2.99547 2.87717 5.85012 0.010739 9.34852 0.00661111L14.2489 6.44096e-06C18.0401 -0.00494707 20.5888 2.84786 20.6843 6.5246L20.8997 6.59684L21.4562 4.93123C21.639 4.38386 22.2305 4.0883 22.7766 4.27158L28.0605 6.04535C28.6066 6.22863 28.9019 6.82099 28.7186 7.36835L28.1622 9.0348ZM16.1674 12.0556C16.7774 12.0556 21.5744 18.8163 21.5744 21.8087C21.5744 28.9363 10.7612 28.9363 10.7612 21.8087C10.7612 18.8163 15.5578 12.0556 16.1674 12.0556ZM16.1674 15.2353C15.1855 16.6091 12.886 20.2871 12.886 21.8087C12.886 26.1277 19.4496 26.1228 19.4496 21.8087C19.4496 20.2871 17.1501 16.6091 16.1674 15.2353ZM7.96794 29.8305C13.4664 29.6757 19.0723 29.8276 24.5855 29.8205C26.0497 29.8181 27.2516 28.6086 27.2499 27.1411L27.2289 10.927C24.5905 10.0416 21.9521 9.15616 19.3141 8.2703C18.8771 8.12376 18.5863 7.7023 18.6023 7.24245C18.5966 4.40987 17.4364 2.08626 14.2983 2.09039L9.34935 2.09658C7.00418 2.09988 5.08323 4.03381 5.0857 6.38343C5.08982 9.82612 5.11659 13.2705 5.12853 16.714C5.14089 20.1046 5.21297 23.556 5.12647 26.9446C5.08364 28.6631 6.22657 29.88 7.96794 29.8305ZM8.68377 3.75518L14.8362 3.74569C16.0146 3.74362 16.9709 4.70171 16.9722 5.88271L16.9738 7.37042C16.9755 8.551 16.0183 9.50951 14.8408 9.51157L8.6883 9.52148C7.51036 9.52354 6.554 8.56421 6.55277 7.38445L6.55112 5.89675C6.5503 4.71616 7.50665 3.75724 8.68377 3.75518ZM14.8371 5.83607L8.685 5.84556C8.66153 5.84556 8.6364 5.87322 8.6364 5.89592L8.63805 7.38363C8.63805 7.40674 8.66565 7.4311 8.68706 7.4311L14.8399 7.4216C14.8634 7.4216 14.8881 7.39394 14.8881 7.37083L14.8865 5.88312C14.8865 5.8596 14.8597 5.83607 14.8371 5.83607ZM26.4089 7.69611L23.1032 6.58694L22.8779 7.26103L26.1836 8.37061L26.4089 7.69611Z"
      fill="currentColor" />
  </symbol>
  <symbol id="chevron-left" viewBox="0 0 24 24">
    <path fill-rule="evenodd" clip-rule="evenodd"
      d="M15.7071 4.29289C16.0976 4.68342 16.0976 5.31658 15.7071 5.70711L9.41421 12L15.7071 18.2929C16.0976 18.6834 16.0976 19.3166 15.7071 19.7071C15.3166 20.0976 14.6834 20.0976 14.2929 19.7071L7.29289 12.7071C6.90237 12.3166 6.90237 11.6834 7.29289 11.2929L14.2929 4.29289C14.6834 3.90237 15.3166 3.90237 15.7071 4.29289Z"
      fill="currentColor" />
  </symbol>
  <symbol id="chevron-right" viewBox="0 0 24 24">
    <path fill-rule="evenodd" clip-rule="evenodd"
      d="M8.29289 19.7071C7.90237 19.3166 7.90237 18.6834 8.29289 18.2929L14.5858 12L8.29289 5.70711C7.90237 5.31658 7.90237 4.68342 8.29289 4.29289C8.68342 3.90237 9.31658 3.90237 9.70711 4.29289L16.7071 11.2929C17.0976 11.6834 17.0976 12.3166 16.7071 12.7071L9.70711 19.7071C9.31658 20.0976 8.68342 20.0976 8.29289 19.7071Z"
      fill="currentColor" />
  </symbol>
  <symbol id="close" viewBox="0 0 24 24">
    <path
      d="M20.7457 3.32851C20.3552 2.93798 19.722 2.93798 19.3315 3.32851L12.0371 10.6229L4.74275 3.32851C4.35223 2.93798 3.71906 2.93798 3.32854 3.32851C2.93801 3.71903 2.93801 4.3522 3.32854 4.74272L10.6229 12.0371L3.32856 19.3314C2.93803 19.722 2.93803 20.3551 3.32856 20.7457C3.71908 21.1362 4.35225 21.1362 4.74277 20.7457L12.0371 13.4513L19.3315 20.7457C19.722 21.1362 20.3552 21.1362 20.7457 20.7457C21.1362 20.3551 21.1362 19.722 20.7457 19.3315L13.4513 12.0371L20.7457 4.74272C21.1362 4.3522 21.1362 3.71903 20.7457 3.32851Z"
      fill="currentColor" />
  </symbol>
  <symbol id="menu" viewBox="0 0 24 24">
    <path d="M4 18L20 18" stroke="currentColor" stroke-width="2" stroke-linecap="round" />
    <path d="M4 12L20 12" stroke="currentColor" stroke-width="2" stroke-linecap="round" />
    <path d="M4 6L20 6" stroke="currentColor" stroke-width="2" stroke-linecap="round" />
  </symbol>
  <symbol id="filters" viewBox="0 0 24 24">
    <path
      d="M4 5L10 5M10 5C10 6.10457 10.8954 7 12 7C13.1046 7 14 6.10457 14 5M10 5C10 3.89543 10.8954 3 12 3C13.1046 3 14 3.89543 14 5M14 5L20 5M4 12L16 12M16 12C16 13.1046 16.8954 14 18 14C19.1046 14 20 13.1046 20 12C20 10.8954 19.1046 10 18 10C16.8954 10 16 10.8954 16 12ZM8 19L20 19M8 19C8 17.8954 7.10457 17 6 17C4.89543 17 4 17.8954 4 19C4 20.1046 4.89543 21 6 21C7.10457 21 8 20.1046 8 19Z"
      stroke="currentColor" stroke-width="1.5" stroke-linecap="round" />
  </symbol>
</svg>
  